<svg xmlns="http://www.w3.org/2000/svg" width="70.33" height="70.33" viewBox="0 0 70.33 70.33">
  <path id="categorias-icon-redes" d="M33.758,69.328a3.19,3.19,0,0,0,1.085.74,3.462,3.462,0,0,0,2.644,0,3.19,3.19,0,0,0,1.085-.74L48.8,58.606H61.74a10.05,10.05,0,0,0,6.781-2.575,8.436,8.436,0,0,0,2.809-6.216V8.791a8.436,8.436,0,0,0-2.809-6.216A10.051,10.051,0,0,0,61.74,0H10.59A10.051,10.051,0,0,0,3.809,2.575,8.436,8.436,0,0,0,1,8.791V49.815a8.436,8.436,0,0,0,2.809,6.216,10.05,10.05,0,0,0,6.781,2.575H23.525Zm11.189-15.58-8.782,9.2-8.782-9.2a3.193,3.193,0,0,0-1.085-.74,3.443,3.443,0,0,0-1.322-.262H10.59a3.349,3.349,0,0,1-2.261-.858,2.812,2.812,0,0,1-.936-2.072V8.791A2.812,2.812,0,0,1,8.33,6.719a3.35,3.35,0,0,1,2.261-.858H61.74A3.35,3.35,0,0,1,64,6.719a2.813,2.813,0,0,1,.936,2.072V49.815A2.812,2.812,0,0,1,64,51.887a3.349,3.349,0,0,1-2.26.858H47.354a3.447,3.447,0,0,0-1.322.261,3.194,3.194,0,0,0-1.086.738ZM23.378,24.837a4.579,4.579,0,0,1,4.8-4.325,4.577,4.577,0,0,1,4.8,4.325,2.813,2.813,0,0,0,.936,2.072,3.406,3.406,0,0,0,4.521,0,2.813,2.813,0,0,0,.936-2.072,4.577,4.577,0,0,1,4.8-4.325,4.577,4.577,0,0,1,4.8,4.325c0,2.886-1.838,6.1-4.91,9.383a59.543,59.543,0,0,1-7.877,6.831,59.732,59.732,0,0,1-7.877-6.828c-3.072-3.294-4.91-6.5-4.91-9.389Zm4.8-10.186a11.746,11.746,0,0,1,7.992,3.056,11.312,11.312,0,0,1,3.661-2.264,12.093,12.093,0,0,1,4.331-.792c6.151,0,11.189,4.533,11.189,10.186,0,5.017-3.069,9.582-6.448,13.2A72.811,72.811,0,0,1,38.128,47.1a3.429,3.429,0,0,1-3.926,0,72.987,72.987,0,0,1-10.773-9.069c-3.376-3.616-6.445-8.182-6.445-13.2,0-5.653,5.038-10.186,11.189-10.186Z" transform="translate(-1)" fill="#f4f4f5" fill-rule="evenodd"/>
</svg>
