<svg id="categorias-icon-desarrollo" xmlns="http://www.w3.org/2000/svg" width="70.334" height="70.334" viewBox="0 0 70.334 70.334">
  <path id="Path_98" data-name="Path 98" d="M0,35.167c0,28.96,6.207,35.167,35.167,35.167s35.167-6.207,35.167-35.167S64.127,0,35.167,0,0,6.207,0,35.167Zm5.861,0c0,7.106.388,12.417,1.283,16.441.88,3.958,2.169,6.3,3.724,7.858s3.9,2.845,7.858,3.724c4.024.894,9.334,1.283,16.441,1.283s12.417-.388,16.441-1.283c3.958-.879,6.3-2.169,7.858-3.724s2.845-3.9,3.724-7.858c.894-4.024,1.283-9.334,1.283-16.441S64.084,22.75,63.19,18.726c-.879-3.958-2.169-6.3-3.724-7.858s-3.9-2.845-7.858-3.724c-4.024-.894-9.334-1.283-16.441-1.283S22.75,6.25,18.726,7.144c-3.958.88-6.3,2.169-7.858,3.724s-2.845,3.9-3.724,7.858C6.25,22.75,5.861,28.061,5.861,35.167Z" transform="translate(0 0)" fill="#f4f4f5" fill-rule="evenodd"/>
  <path id="Path_99" data-name="Path 99" d="M213.384,160.4a2.93,2.93,0,1,0,5.753,1.118l5.838-30.034a2.93,2.93,0,1,0-5.753-1.118Z" transform="translate(-184.025 -110.411)" fill="#f4f4f5"/>
  <path id="Path_100" data-name="Path 100" d="M117.531,192.857a2.931,2.931,0,0,1,0,4.145l-3.789,3.789,3.789,3.789a2.931,2.931,0,0,1-4.144,4.145l-5.861-5.861a2.931,2.931,0,0,1,0-4.144l5.861-5.861A2.931,2.931,0,0,1,117.531,192.857Z" transform="translate(-92.014 -165.624)" fill="#f4f4f5"/>
  <path id="Path_101" data-name="Path 101" d="M320.858,192.857a2.931,2.931,0,0,0,0,4.145l3.789,3.789-3.789,3.789A2.931,2.931,0,0,0,325,208.724l5.861-5.861a2.931,2.931,0,0,0,0-4.144L325,192.857A2.931,2.931,0,0,0,320.858,192.857Z" transform="translate(-276.041 -165.624)" fill="#f4f4f5"/>
</svg>
