<svg xmlns="http://www.w3.org/2000/svg" width="70.33" height="70.33" viewBox="0 0 70.33 70.33">
  <g id="categorias-icon-estrategias" transform="translate(0 -13.198)">
    <g id="Group_193" data-name="Group 193" transform="translate(0 13.198)">
      <path id="Path_102" data-name="Path 102" d="M49.231,83.528a3.418,3.418,0,0,1-2.487-1.084L35.165,70.255,23.585,82.444a3.393,3.393,0,0,1-4.973,0,3.841,3.841,0,0,1,0-5.235l8.063-8.487H10.549a6.816,6.816,0,0,1-4.973-2.168,7.555,7.555,0,0,1-2.06-5.235V20.6A3.613,3.613,0,0,1,0,16.9a3.613,3.613,0,0,1,3.517-3.7h63.3a3.613,3.613,0,0,1,3.517,3.7,3.613,3.613,0,0,1-3.517,3.7V61.318a7.555,7.555,0,0,1-2.06,5.235,6.815,6.815,0,0,1-4.973,2.169H43.655l8.063,8.487a3.841,3.841,0,0,1,0,5.235A3.418,3.418,0,0,1,49.231,83.528ZM10.549,20.6V61.318H59.781V20.6ZM38.682,50.214a3.418,3.418,0,0,1-2.487-1.084l-8.063-8.487-8.063,8.487a3.393,3.393,0,0,1-4.973,0,3.841,3.841,0,0,1,0-5.235l10.55-11.1a3.393,3.393,0,0,1,4.973,0l8.063,8.487L50.261,29.088a3.394,3.394,0,0,1,4.973,0,3.841,3.841,0,0,1,0,5.235L41.168,49.13a3.418,3.418,0,0,1-2.487,1.084Z" transform="translate(0 -13.198)" fill="#f4f4f5"/>
    </g>
  </g>
</svg>
