<?xml version="1.0" encoding="UTF-8"?>
<svg id="Capa_1" data-name="Capa 1" xmlns="http://www.w3.org/2000/svg" viewBox="0 0 73.29 73.29">
  <defs>
    <style>
      .cls-1 {
        fill: #fff;
      }

      .cls-1, .cls-2 {
        stroke-width: 0px;
      }

      .cls-2 {
        fill: aqua;
      }
    </style>
  </defs>
  <path class="cls-1" d="m57.87,50.45h-14.9c-2.55,0-4.95-.99-6.75-2.79l-10.05-10.05c-.91-.91-.91-2.39,0-3.3.91-.91,2.39-.91,3.3,0l10.05,10.05c.92.92,2.15,1.43,3.45,1.43h14.9c1.29,0,2.33,1.04,2.33,2.33s-1.04,2.33-2.33,2.33Z"/>
  <path class="cls-2" d="m42.11,39.56h-10.07c-1.44,0-2.79-.56-3.81-1.58l-15.14-15.14h23.52c1.29,0,2.33,1.04,2.33,2.33s-1.04,2.33-2.33,2.33h-12.26l7.18,7.18c.14.14.32.21.51.21h10.07c1.29,0,2.33,1.04,2.33,2.33s-1.04,2.33-2.33,2.33Z"/>
</svg>