<svg
    xmlns="http://www.w3.org/2000/svg"
    xmlns:xlink="http://www.w3.org/1999/xlink"
    width="40"
    height="21.295"
    viewBox="0 0 40 21.295"
>
  <!-- E -->
  <defs>
    <clipPath id="clip-path">
      <rect id="Rectangle_67" data-name="Rectangle 67" width="189.82" height="18.833" fill="none"/>
    </clipPath>
    <clipPath id="clip-path-2">
      <rect id="Rectangle_68" data-name="Rectangle 68" width="36.346" height="21.295" fill="none"/>
    </clipPath>
  </defs>

  <g id="Eduardo_Coello_logo" data-name="Eduardo Coello logo" transform="translate(-53.654 -34)">
    <!-- <g id="Group_180" data-name="Group 180" transform="translate(111.09 35)">
      <path id="Path_83" data-name="Path 83" d="M4.169.914,0,18.972H11.764l.773-3.353H4.59l.941-4.076h7.1L13.4,8.19h-7.1l.906-3.924h7.817L15.8.914Z" transform="translate(0 -0.551)" fill="#fff"/>
      <g id="Group_179" data-name="Group 179" transform="translate(0 0)">
        <g id="Group_178" data-name="Group 178" clip-path="url(#clip-path)">
          <path id="Path_84" data-name="Path 84" d="M51.312,14.225q-.251,1.085-.494,2.246A20.5,20.5,0,0,0,50.467,19h-2.5l-.08-1.884h-.335a6.019,6.019,0,0,1-2.069,1.638,6.187,6.187,0,0,1-2.759.607,4.21,4.21,0,0,1-3.814-1.691q-1.106-1.69-.291-5.223A12.164,12.164,0,0,1,39.75,9.374a8.622,8.622,0,0,1,1.8-2.32,7.6,7.6,0,0,1,2.417-1.472,8.353,8.353,0,0,1,2.983-.516,7.071,7.071,0,0,1,1.528.141,11.2,11.2,0,0,1,1.222.349L50.772.913h3.613ZM44.347,16.34a3.45,3.45,0,0,0,2.011-.554A4.38,4.38,0,0,0,47.7,14.2L48.955,8.78a2.408,2.408,0,0,0-.871-.528,4.311,4.311,0,0,0-1.341-.168,3.923,3.923,0,0,0-2.8,1.006,6.792,6.792,0,0,0-1.637,3.457,4.353,4.353,0,0,0,.075,2.749,1.925,1.925,0,0,0,1.965,1.043" transform="translate(-23.101 -0.551)" fill="#fff"/>
          <path id="Path_85" data-name="Path 85" d="M86.262,12.3l-1.734,7.508a4.65,4.65,0,0,0-.1,2.45q.285.775,1.6.774a3.659,3.659,0,0,0,2.046-.593,4.893,4.893,0,0,0,1.481-1.5l2-8.642h3.61l-2.173,9.417a20.578,20.578,0,0,0-.385,2.167,15.181,15.181,0,0,0-.13,1.96H89.817l-.209-2.115h-.283A7.345,7.345,0,0,1,87,25.526a6.549,6.549,0,0,1-3,.71,5.621,5.621,0,0,1-1.9-.284,2.342,2.342,0,0,1-1.212-.943,3.413,3.413,0,0,1-.476-1.741,10.3,10.3,0,0,1,.323-2.682L82.651,12.3Z" transform="translate(-48.54 -7.428)" fill="#fff"/>
          <path id="Path_86" data-name="Path 86" d="M122.234,12.839a16.454,16.454,0,0,1,3.047-.85,19.152,19.152,0,0,1,3.574-.336,6.667,6.667,0,0,1,2.308.336,2.624,2.624,0,0,1,1.311.968,2.912,2.912,0,0,1,.46,1.522,7.329,7.329,0,0,1-.209,1.974q-.3,1.315-.706,2.6c-.267.862-.512,1.771-.734,2.735a14.328,14.328,0,0,0-.314,1.909,9.209,9.209,0,0,0,0,1.781h-2.941l-.129-2.013H127.6a8.608,8.608,0,0,1-2.061,1.548,5.775,5.775,0,0,1-2.805.646A4.832,4.832,0,0,1,121,25.377a2.916,2.916,0,0,1-1.2-.813,2.782,2.782,0,0,1-.616-1.251,3.592,3.592,0,0,1,.042-1.572,5.406,5.406,0,0,1,2.334-3.472,8.968,8.968,0,0,1,4.929-1.174,8.383,8.383,0,0,1,1.417.118c.465.076.788.134.971.166a8.142,8.142,0,0,0,.291-.928,1.644,1.644,0,0,0-.157-1.445,2.265,2.265,0,0,0-1.725-.466,10.688,10.688,0,0,0-2.48.3,13.249,13.249,0,0,0-2.246.735Zm2.427,9.934a3.645,3.645,0,0,0,2.065-.568,5.552,5.552,0,0,0,1.333-1.186l.358-1.548a1.986,1.986,0,0,0-.377-.1q-.26-.051-.57-.1c-.206-.034-.415-.061-.627-.078s-.4-.025-.575-.025a4.039,4.039,0,0,0-2.18.5,2.03,2.03,0,0,0-.96,1.252,1.485,1.485,0,0,0,.208,1.392,1.7,1.7,0,0,0,1.325.465" transform="translate(-71.903 -7.035)" fill="#fff"/>
          <path id="Path_87" data-name="Path 87" d="M168.013,15.136a4.34,4.34,0,0,0-1.489-.258,3.655,3.655,0,0,0-1.995.542,3.462,3.462,0,0,0-1.283,1.367l-1.983,8.591h-3.612l3.127-13.544h2.838l-.048,1.883h.335a5.586,5.586,0,0,1,1.754-1.625,4.194,4.194,0,0,1,2.106-.567,4.812,4.812,0,0,1,1.533.283Z" transform="translate(-95.167 -6.957)" fill="#fff"/>
          <path id="Path_88" data-name="Path 88" d="M198.1,14.225q-.251,1.085-.494,2.246A20.5,20.5,0,0,0,197.25,19h-2.5l-.08-1.884h-.335a6.019,6.019,0,0,1-2.069,1.638,6.187,6.187,0,0,1-2.759.607,4.21,4.21,0,0,1-3.814-1.691q-1.106-1.69-.291-5.223a12.165,12.165,0,0,1,1.134-3.071,8.622,8.622,0,0,1,1.8-2.32,7.6,7.6,0,0,1,2.417-1.472,8.353,8.353,0,0,1,2.983-.516,7.069,7.069,0,0,1,1.528.141,11.2,11.2,0,0,1,1.222.349L197.555.913h3.613ZM191.13,16.34a3.45,3.45,0,0,0,2.011-.554,4.38,4.38,0,0,0,1.347-1.586l1.251-5.419a2.408,2.408,0,0,0-.871-.528,4.311,4.311,0,0,0-1.341-.168,3.923,3.923,0,0,0-2.8,1.006,6.792,6.792,0,0,0-1.637,3.457,4.353,4.353,0,0,0,.075,2.749,1.925,1.925,0,0,0,1.965,1.043" transform="translate(-111.707 -0.551)" fill="#fff"/>
          <path id="Path_89" data-name="Path 89" d="M226.532,18.5a9.538,9.538,0,0,1,3-5.263,8.177,8.177,0,0,1,5.525-1.91,6.857,6.857,0,0,1,2.893.542,4.17,4.17,0,0,1,1.793,1.51,4.956,4.956,0,0,1,.752,2.271,8.851,8.851,0,0,1-.233,2.851,10.643,10.643,0,0,1-1.153,2.98,8.569,8.569,0,0,1-1.861,2.257,7.809,7.809,0,0,1-2.482,1.419,9.018,9.018,0,0,1-3.016.491,6.9,6.9,0,0,1-2.919-.542,4.174,4.174,0,0,1-1.794-1.508,4.871,4.871,0,0,1-.739-2.271,9.114,9.114,0,0,1,.238-2.824m3.716,0a6.816,6.816,0,0,0-.189,1.6,3.27,3.27,0,0,0,.254,1.3,2,2,0,0,0,.763.891,2.476,2.476,0,0,0,1.367.334q3.147,0,4.1-4.126a7.907,7.907,0,0,0,.217-1.666,3.167,3.167,0,0,0-.239-1.315,1.834,1.834,0,0,0-.78-.863,2.749,2.749,0,0,0-1.387-.311,3.619,3.619,0,0,0-2.535.981,6.1,6.1,0,0,0-1.571,3.174" transform="translate(-136.586 -6.837)" fill="#fff"/>
          <path id="Path_90" data-name="Path 90" d="M296.636,17.648a7.319,7.319,0,0,1-2.445.863,16,16,0,0,1-2.925.27,9.575,9.575,0,0,1-3.2-.514,5.5,5.5,0,0,1-2.43-1.651,6,6,0,0,1-1.276-2.915,11.027,11.027,0,0,1,.271-4.309,12.753,12.753,0,0,1,1.847-4.425,11.487,11.487,0,0,1,2.783-2.889A10.768,10.768,0,0,1,292.5.49a11.531,11.531,0,0,1,3.21-.49,15.435,15.435,0,0,1,2.776.208,9.058,9.058,0,0,1,1.784.49l-1.486,3.2a4.942,4.942,0,0,0-1.413-.414,14.57,14.57,0,0,0-2.151-.13,6.339,6.339,0,0,0-2.188.374,5.733,5.733,0,0,0-1.872,1.122,7.18,7.18,0,0,0-1.482,1.884,10.113,10.113,0,0,0-.986,2.657,8.274,8.274,0,0,0-.23,2.45,4.192,4.192,0,0,0,.566,1.91,3.185,3.185,0,0,0,1.417,1.237,5.345,5.345,0,0,0,2.3.439,8.45,8.45,0,0,0,3.854-.825Z" transform="translate(-171.592 0)" fill="#fff"/>
          <path id="Path_91" data-name="Path 91" d="M320.587,18.5a9.538,9.538,0,0,1,3-5.263,8.177,8.177,0,0,1,5.525-1.91,6.857,6.857,0,0,1,2.893.542,4.17,4.17,0,0,1,1.793,1.51,4.955,4.955,0,0,1,.752,2.271,8.851,8.851,0,0,1-.233,2.851,10.643,10.643,0,0,1-1.153,2.98,8.569,8.569,0,0,1-1.861,2.257,7.809,7.809,0,0,1-2.482,1.419,9.019,9.019,0,0,1-3.016.491,6.9,6.9,0,0,1-2.919-.542,4.171,4.171,0,0,1-1.794-1.508,4.871,4.871,0,0,1-.739-2.271,9.114,9.114,0,0,1,.238-2.824m3.716,0a6.814,6.814,0,0,0-.189,1.6,3.269,3.269,0,0,0,.254,1.3,2.005,2.005,0,0,0,.763.891,2.476,2.476,0,0,0,1.367.334q3.147,0,4.1-4.126a7.94,7.94,0,0,0,.217-1.666,3.166,3.166,0,0,0-.239-1.315,1.834,1.834,0,0,0-.78-.863,2.749,2.749,0,0,0-1.387-.311,3.619,3.619,0,0,0-2.535.981A6.1,6.1,0,0,0,324.3,18.5" transform="translate(-193.363 -6.837)" fill="#fff"/>
          <path id="Path_92" data-name="Path 92" d="M371.715,24.022a10.2,10.2,0,0,1-2.651,1.147,11.819,11.819,0,0,1-3.349.479q-3.484,0-4.667-1.91t-.418-5.237a9.309,9.309,0,0,1,3.068-5.354,8.592,8.592,0,0,1,5.58-1.818,7.842,7.842,0,0,1,2.077.271,3.913,3.913,0,0,1,1.676.9,3.315,3.315,0,0,1,.935,1.7,5.859,5.859,0,0,1-.106,2.644q-.125.543-.34,1.189a13.752,13.752,0,0,1-.529,1.34h-9.03a3.194,3.194,0,0,0,.42,2.593,3.429,3.429,0,0,0,2.709.839,7.164,7.164,0,0,0,2.261-.349,8.415,8.415,0,0,0,1.647-.71Zm-3.143-9.856a3.739,3.739,0,0,0-2.573.863,4.951,4.951,0,0,0-1.413,2.206h5.831a3,3,0,0,0,0-2.243,1.881,1.881,0,0,0-1.847-.826" transform="translate(-217.513 -6.839)" fill="#fff"/>
          <path id="Path_93" data-name="Path 93" d="M403.413,14.226c-.3,1.308-.03,1.961.811,1.961a3.794,3.794,0,0,0,.7-.063,6.891,6.891,0,0,0,.811-.22l-.209,2.812a10.147,10.147,0,0,1-1.563.451,9.2,9.2,0,0,1-2,.218,3.129,3.129,0,0,1-2.323-.722,2.5,2.5,0,0,1-.316-2.372L402.875.914h3.611Z" transform="translate(-240.972 -0.552)" fill="#fff"/>
          <path id="Path_94" data-name="Path 94" d="M425.349,14.226c-.3,1.308-.031,1.961.811,1.961a3.794,3.794,0,0,0,.7-.063,6.964,6.964,0,0,0,.812-.22l-.21,2.812a10.147,10.147,0,0,1-1.563.451,9.2,9.2,0,0,1-2,.218,3.129,3.129,0,0,1-2.323-.722,2.5,2.5,0,0,1-.316-2.372L424.811.914h3.611Z" transform="translate(-254.214 -0.552)" fill="#fff"/>
          <path id="Path_95" data-name="Path 95" d="M443.22,18.5a9.532,9.532,0,0,1,3-5.263,8.172,8.172,0,0,1,5.524-1.91,6.852,6.852,0,0,1,2.893.542,4.163,4.163,0,0,1,1.793,1.51,4.942,4.942,0,0,1,.752,2.271,8.85,8.85,0,0,1-.233,2.851,10.64,10.64,0,0,1-1.151,2.98,8.574,8.574,0,0,1-1.863,2.257,7.8,7.8,0,0,1-2.482,1.419,9.016,9.016,0,0,1-3.014.491,6.911,6.911,0,0,1-2.921-.542,4.171,4.171,0,0,1-1.794-1.508,4.884,4.884,0,0,1-.739-2.271,9.149,9.149,0,0,1,.238-2.824m3.716,0a6.814,6.814,0,0,0-.188,1.6A3.243,3.243,0,0,0,447,21.4a1.992,1.992,0,0,0,.761.891,2.476,2.476,0,0,0,1.367.334q3.147,0,4.1-4.126a7.932,7.932,0,0,0,.217-1.666,3.141,3.141,0,0,0-.239-1.315,1.828,1.828,0,0,0-.78-.863,2.749,2.749,0,0,0-1.387-.311,3.619,3.619,0,0,0-2.535.981,6.1,6.1,0,0,0-1.571,3.174" transform="translate(-267.391 -6.837)" fill="#fff"/>
        </g>
      </g>
    </g> -->

    <!-- E -->
    <g id="Group_181" data-name="Group 181" transform="translate(53.654 34)" clip-path="url(#clip-path-2)">
      <path id="Path_96" data-name="Path 96" d="M33.918,20.588H22.21a7.252,7.252,0,0,1-5.164-2.139l-7.9-7.9a1.637,1.637,0,0,1,2.315-2.315l7.9,7.9a4,4,0,0,0,2.849,1.18H33.918a1.637,1.637,0,1,1,0,3.274" transform="translate(0.791 0.708)" fill="#fff"/>
      <path id="Path_97" data-name="Path 97" d="M22.331,12.745H14.417a4.011,4.011,0,0,1-2.856-1.183L0,0H18.006a1.637,1.637,0,0,1,0,3.274H7.9l5.973,5.973a.762.762,0,0,0,.541.224h7.914a1.637,1.637,0,0,1,0,3.274" transform="translate(0 0)" fill="#06ffff"/>
    </g>
  </g>
</svg>
