<svg xmlns="http://www.w3.org/2000/svg" xmlns:xlink="http://www.w3.org/1999/xlink" width="169.671" height="131.004" viewBox="0 0 169.671 131.004">
  <defs>
    <clipPath id="clip-path">
      <rect id="Rectangle_68" data-name="Rectangle 68" width="60.545" height="35.474" fill="none"/>
    </clipPath>
  </defs>
  <g id="Eduardo_Coello_Logo" data-name="Eduardo Coello Logo" transform="translate(-15503 -3787.837)">
    <g id="logo-wordmark" transform="translate(15503 3845.335)">
      <g id="Coello" transform="translate(0 42.762)">
        <path id="Path_90" data-name="Path 90" d="M304.465,28.81a11.948,11.948,0,0,1-3.991,1.409,26.123,26.123,0,0,1-4.776.441,15.63,15.63,0,0,1-5.216-.84,8.984,8.984,0,0,1-3.967-2.7,9.791,9.791,0,0,1-2.083-4.759,18,18,0,0,1,.443-7.034,20.819,20.819,0,0,1,3.015-7.223,18.751,18.751,0,0,1,4.543-4.715A17.578,17.578,0,0,1,297.706.8a18.823,18.823,0,0,1,5.24-.8,25.2,25.2,0,0,1,4.532.339,14.787,14.787,0,0,1,2.912.8l-2.426,5.223a8.067,8.067,0,0,0-2.307-.675,23.784,23.784,0,0,0-3.511-.212,10.348,10.348,0,0,0-3.572.611,9.359,9.359,0,0,0-3.056,1.832,11.721,11.721,0,0,0-2.42,3.076,16.508,16.508,0,0,0-1.61,4.338,13.507,13.507,0,0,0-.375,4,6.843,6.843,0,0,0,.923,3.119,5.2,5.2,0,0,0,2.314,2.02,8.725,8.725,0,0,0,3.751.717,13.794,13.794,0,0,0,6.292-1.347Z" transform="translate(-284.256 0)" fill="#fff"/>
        <path id="Path_91" data-name="Path 91" d="M320.754,23.036a15.57,15.57,0,0,1,4.89-8.592,13.348,13.348,0,0,1,9.019-3.119,11.194,11.194,0,0,1,4.722.885,6.808,6.808,0,0,1,2.926,2.464,8.089,8.089,0,0,1,1.228,3.707,14.448,14.448,0,0,1-.38,4.653,17.375,17.375,0,0,1-1.882,4.864,13.989,13.989,0,0,1-3.038,3.684,12.747,12.747,0,0,1-4.051,2.316,14.723,14.723,0,0,1-4.923.8,11.272,11.272,0,0,1-4.765-.885,6.81,6.81,0,0,1-2.928-2.463,7.952,7.952,0,0,1-1.207-3.707,14.88,14.88,0,0,1,.389-4.61m6.066,0a11.12,11.12,0,0,0-.309,2.609,5.338,5.338,0,0,0,.414,2.125,3.274,3.274,0,0,0,1.246,1.455,4.042,4.042,0,0,0,2.231.545q5.138,0,6.695-6.735a12.96,12.96,0,0,0,.354-2.719,5.17,5.17,0,0,0-.391-2.147,3,3,0,0,0-1.273-1.409,4.487,4.487,0,0,0-2.264-.507,5.908,5.908,0,0,0-4.139,1.6,9.951,9.951,0,0,0-2.564,5.182" transform="translate(-296.987 -3.998)" fill="#fff"/>
        <path id="Path_92" data-name="Path 92" d="M378.916,32.05a16.643,16.643,0,0,1-4.327,1.873,19.294,19.294,0,0,1-5.467.782q-5.688,0-7.619-3.119t-.682-8.549a15.2,15.2,0,0,1,5.009-8.741,14.027,14.027,0,0,1,9.109-2.967,12.8,12.8,0,0,1,3.391.443,6.387,6.387,0,0,1,2.736,1.474,5.411,5.411,0,0,1,1.526,2.778,9.565,9.565,0,0,1-.173,4.316q-.2.887-.555,1.94A22.457,22.457,0,0,1,381,24.468h-14.74q-.453,2.865.686,4.232t4.422,1.37a11.694,11.694,0,0,0,3.691-.569,13.736,13.736,0,0,0,2.689-1.159Zm-5.13-16.089a6.1,6.1,0,0,0-4.2,1.409,8.082,8.082,0,0,0-2.307,3.6h9.52a4.894,4.894,0,0,0,0-3.662c-.464-.9-1.472-1.349-3.015-1.349" transform="translate(-311.109 -3.999)" fill="#fff"/>
        <path id="Path_93" data-name="Path 93" d="M406.084,22.645c-.494,2.135-.05,3.2,1.323,3.2a6.194,6.194,0,0,0,1.141-.1,11.25,11.25,0,0,0,1.323-.358l-.341,4.591a16.567,16.567,0,0,1-2.551.736,15.02,15.02,0,0,1-3.263.357,5.108,5.108,0,0,1-3.792-1.179q-1.137-1.178-.516-3.872l5.8-25.1H411.1Z" transform="translate(-324.826 -0.323)" fill="#fff"/>
        <path id="Path_94" data-name="Path 94" d="M428.02,22.645c-.494,2.135-.05,3.2,1.323,3.2a6.194,6.194,0,0,0,1.141-.1,11.367,11.367,0,0,0,1.325-.358l-.343,4.591a16.566,16.566,0,0,1-2.551.736,15.021,15.021,0,0,1-3.263.357,5.108,5.108,0,0,1-3.792-1.179q-1.136-1.178-.516-3.872l5.8-25.1h5.894Z" transform="translate(-332.57 -0.323)" fill="#fff"/>
        <path id="Path_95" data-name="Path 95" d="M443.388,23.036a15.561,15.561,0,0,1,4.892-8.592,13.34,13.34,0,0,1,9.017-3.119,11.185,11.185,0,0,1,4.722.885,6.8,6.8,0,0,1,2.926,2.464,8.067,8.067,0,0,1,1.228,3.707,14.449,14.449,0,0,1-.38,4.653,17.37,17.37,0,0,1-1.88,4.864,14,14,0,0,1-3.041,3.684,12.727,12.727,0,0,1-4.051,2.316,14.718,14.718,0,0,1-4.921.8,11.282,11.282,0,0,1-4.768-.885,6.809,6.809,0,0,1-2.928-2.463A7.973,7.973,0,0,1,443,27.646a14.934,14.934,0,0,1,.389-4.61m6.066,0a11.123,11.123,0,0,0-.307,2.609,5.3,5.3,0,0,0,.415,2.125,3.252,3.252,0,0,0,1.243,1.455,4.042,4.042,0,0,0,2.232.545q5.138,0,6.695-6.735a12.948,12.948,0,0,0,.354-2.719,5.127,5.127,0,0,0-.391-2.147,2.985,2.985,0,0,0-1.273-1.409,4.487,4.487,0,0,0-2.264-.507,5.908,5.908,0,0,0-4.139,1.6,9.951,9.951,0,0,0-2.564,5.182" transform="translate(-340.275 -3.998)" fill="#fff"/>
      </g>
      <g id="Eduardo" transform="translate(0 0)">
        <path id="Path_83" data-name="Path 83" d="M6.805.914,0,30.394H19.2l1.262-5.474H7.493L9.03,18.265H20.613l1.265-5.473H10.3l1.478-6.405h12.76L25.8.914Z" transform="translate(0 -0.913)" fill="#fff"/>
        <path id="Path_84" data-name="Path 84" d="M59.562,22.644q-.411,1.771-.807,3.667a33.47,33.47,0,0,0-.574,4.127H54.095l-.131-3.075h-.546a9.826,9.826,0,0,1-3.377,2.673,10.1,10.1,0,0,1-4.5.991q-4.422,0-6.226-2.761t-.475-8.527a19.858,19.858,0,0,1,1.852-5.013,14.074,14.074,0,0,1,2.939-3.788,12.409,12.409,0,0,1,3.946-2.4,13.636,13.636,0,0,1,4.869-.842,11.543,11.543,0,0,1,2.495.231,18.283,18.283,0,0,1,1.994.57L58.679.913h5.9ZM48.19,26.1a5.632,5.632,0,0,0,3.282-.9,7.15,7.15,0,0,0,2.2-2.589l2.042-8.847a3.931,3.931,0,0,0-1.422-.861,7.038,7.038,0,0,0-2.189-.274,6.4,6.4,0,0,0-4.571,1.643Q45.781,15.9,44.86,19.907a7.105,7.105,0,0,0,.123,4.487q.764,1.7,3.207,1.7" transform="translate(-13.508 -0.913)" fill="#fff"/>
        <path id="Path_85" data-name="Path 85" d="M89.963,12.3,87.131,24.56a7.592,7.592,0,0,0-.164,4q.466,1.266,2.614,1.264a5.974,5.974,0,0,0,3.341-.969,7.987,7.987,0,0,0,2.417-2.443L98.6,12.3h5.894l-3.548,15.373a33.591,33.591,0,0,0-.628,3.537,24.782,24.782,0,0,0-.212,3.2H95.766l-.341-3.453h-.461a11.991,11.991,0,0,1-3.792,2.926,10.69,10.69,0,0,1-4.9,1.159,9.175,9.175,0,0,1-3.1-.464A3.823,3.823,0,0,1,81.2,33.044a5.572,5.572,0,0,1-.777-2.842,16.809,16.809,0,0,1,.527-4.379L84.068,12.3Z" transform="translate(-28.384 -4.934)" fill="#fff"/>
        <path id="Path_86" data-name="Path 86" d="M124.208,13.589a26.86,26.86,0,0,1,4.974-1.388,31.264,31.264,0,0,1,5.834-.548,10.883,10.883,0,0,1,3.768.548,4.283,4.283,0,0,1,2.14,1.58,4.753,4.753,0,0,1,.751,2.484,11.965,11.965,0,0,1-.341,3.222q-.5,2.147-1.152,4.252c-.436,1.407-.835,2.892-1.2,4.465a23.387,23.387,0,0,0-.512,3.117,15.031,15.031,0,0,0,0,2.907h-4.8l-.211-3.287h-.5a14.052,14.052,0,0,1-3.364,2.527,9.427,9.427,0,0,1-4.58,1.055,7.888,7.888,0,0,1-2.823-.466,4.76,4.76,0,0,1-1.966-1.327,4.542,4.542,0,0,1-1.005-2.042,5.863,5.863,0,0,1,.069-2.566,8.825,8.825,0,0,1,3.811-5.667,14.639,14.639,0,0,1,8.046-1.916,13.684,13.684,0,0,1,2.314.192c.76.125,1.286.218,1.585.272a13.287,13.287,0,0,0,.474-1.515,2.684,2.684,0,0,0-.257-2.358q-.624-.758-2.816-.76a17.447,17.447,0,0,0-4.049.486,21.627,21.627,0,0,0-3.667,1.2Zm3.962,16.217a5.95,5.95,0,0,0,3.371-.928,9.064,9.064,0,0,0,2.176-1.936l.584-2.527a3.242,3.242,0,0,0-.615-.169q-.424-.083-.93-.168c-.336-.056-.677-.1-1.023-.127s-.658-.041-.939-.041a6.594,6.594,0,0,0-3.559.82,3.315,3.315,0,0,0-1.567,2.043,2.425,2.425,0,0,0,.339,2.273,2.778,2.778,0,0,0,2.162.76" transform="translate(-42.046 -4.704)" fill="#fff"/>
        <path id="Path_87" data-name="Path 87" d="M174.566,17.42a7.085,7.085,0,0,0-2.43-.421,5.966,5.966,0,0,0-3.256.884,5.651,5.651,0,0,0-2.094,2.232L163.548,34.14h-5.9l5.1-22.11h4.633l-.078,3.073h.546a9.118,9.118,0,0,1,2.864-2.653,6.847,6.847,0,0,1,3.438-.926,7.855,7.855,0,0,1,2.5.462Z" transform="translate(-55.649 -4.659)" fill="#fff"/>
        <path id="Path_88" data-name="Path 88" d="M206.345,22.644q-.41,1.771-.807,3.667a33.471,33.471,0,0,0-.574,4.127h-4.086l-.131-3.075H200.2a9.826,9.826,0,0,1-3.377,2.673,10.1,10.1,0,0,1-4.5.991q-4.422,0-6.226-2.761t-.475-8.527a19.858,19.858,0,0,1,1.852-5.013,14.074,14.074,0,0,1,2.939-3.788,12.41,12.41,0,0,1,3.946-2.4,13.636,13.636,0,0,1,4.869-.842,11.54,11.54,0,0,1,2.495.231,18.283,18.283,0,0,1,1.994.57l1.75-7.582h5.9ZM194.973,26.1a5.632,5.632,0,0,0,3.282-.9,7.149,7.149,0,0,0,2.2-2.589l2.042-8.847a3.931,3.931,0,0,0-1.422-.861,7.038,7.038,0,0,0-2.189-.274,6.4,6.4,0,0,0-4.571,1.643q-1.752,1.641-2.672,5.643a7.105,7.105,0,0,0,.123,4.487q.764,1.7,3.207,1.7" transform="translate(-65.321 -0.913)" fill="#fff"/>
        <path id="Path_89" data-name="Path 89" d="M226.7,23.036a15.57,15.57,0,0,1,4.89-8.592,13.348,13.348,0,0,1,9.019-3.119,11.193,11.193,0,0,1,4.722.885,6.808,6.808,0,0,1,2.926,2.464,8.09,8.09,0,0,1,1.228,3.707,14.449,14.449,0,0,1-.38,4.653,17.373,17.373,0,0,1-1.882,4.864,13.988,13.988,0,0,1-3.038,3.684,12.748,12.748,0,0,1-4.051,2.316,14.722,14.722,0,0,1-4.923.8,11.271,11.271,0,0,1-4.765-.885,6.813,6.813,0,0,1-2.928-2.463,7.952,7.952,0,0,1-1.207-3.707,14.877,14.877,0,0,1,.389-4.61m6.066,0a11.126,11.126,0,0,0-.309,2.609,5.338,5.338,0,0,0,.414,2.125,3.273,3.273,0,0,0,1.245,1.455,4.042,4.042,0,0,0,2.232.545q5.138,0,6.695-6.735a12.906,12.906,0,0,0,.354-2.719,5.17,5.17,0,0,0-.391-2.147,3,3,0,0,0-1.273-1.409,4.487,4.487,0,0,0-2.264-.507,5.908,5.908,0,0,0-4.139,1.6,9.95,9.95,0,0,0-2.564,5.182" transform="translate(-79.869 -4.589)" fill="#fff"/>
      </g>
    </g>
    <g id="logo-icon" transform="translate(15503 3787.837)" clip-path="url(#clip-path)">
      <path id="Path_96" data-name="Path 96" d="M50.729,29.131h-19.5a12.08,12.08,0,0,1-8.6-3.563L9.467,12.411a2.726,2.726,0,0,1,3.856-3.856L26.48,21.712a6.667,6.667,0,0,0,4.746,1.965h19.5a2.727,2.727,0,1,1,0,5.453" transform="translate(7.089 6.344)" fill="#fff"/>
      <path id="Path_97" data-name="Path 97" d="M37.2,21.23H24.016a6.682,6.682,0,0,1-4.757-1.97L0,0H30a2.727,2.727,0,0,1,0,5.453H13.164L23.115,15.4a1.269,1.269,0,0,0,.9.373H37.2a2.727,2.727,0,0,1,0,5.453" transform="translate(0 0.001)" fill="#06ffff"/>
    </g>
  </g>
</svg>
