<svg id="conecta-icon-fb" xmlns="http://www.w3.org/2000/svg" width="40.131" height="40.131" viewBox="0 0 40.131 40.131">
  <g id="Group_196" data-name="Group 196">
    <path id="Path_106" data-name="Path 106" d="M35.114,0H5.016A5.021,5.021,0,0,0,0,5.016v30.1a5.021,5.021,0,0,0,5.016,5.016H20.065V26.336H15.049v-6.27h5.016V15.049A7.524,7.524,0,0,1,27.59,7.525h5.016v6.27H30.1c-1.385,0-2.508-.13-2.508,1.254v5.016h6.27l-2.508,6.27H27.59V40.131h7.524a5.021,5.021,0,0,0,5.016-5.016V5.016A5.021,5.021,0,0,0,35.114,0Z"/>
  </g>
</svg>
