<svg xmlns="http://www.w3.org/2000/svg" width="42.096" height="42.096" viewBox="0 0 42.096 42.096">
  <path id="footer-icon-fb" d="M39.772,0H2.322A2.323,2.323,0,0,0,0,2.323V39.774A2.323,2.323,0,0,0,2.324,42.1H22.487V25.817H17.019V19.445h5.468V14.755c0-5.438,3.32-8.4,8.171-8.4a44.982,44.982,0,0,1,4.9.251v5.684H32.215c-2.639,0-3.15,1.254-3.15,3.095v4.058h6.31l-.822,6.372H29.064V42.1H39.772A2.323,2.323,0,0,0,42.1,39.773h0V2.321A2.323,2.323,0,0,0,39.772,0Zm0,0" transform="translate(0 0)" fill="#fff"/>
</svg>
