<svg xmlns="http://www.w3.org/2000/svg" width="46.956" height="45" viewBox="0 0 46.956 45">
  <path id="Path_184" data-name="Path 184" d="M23.478.5A23.275,23.275,0,0,0,0,23.571,23.109,23.109,0,0,0,16.053,45.46c1.174.217,1.6-.5,1.6-1.109,0-.548-.02-2-.029-3.923-6.531,1.391-7.908-3.1-7.908-3.1a6.15,6.15,0,0,0-2.612-3.375c-2.127-1.43.164-1.4.164-1.4a4.912,4.912,0,0,1,3.6,2.377c2.093,3.528,5.5,2.508,6.838,1.919a4.885,4.885,0,0,1,1.487-3.085C13.979,33.191,8.5,31.207,8.5,22.368a8.814,8.814,0,0,1,2.416-6.19,8.072,8.072,0,0,1,.205-6.106s1.966-.618,6.456,2.365a22.51,22.51,0,0,1,11.739,0c4.461-2.984,6.427-2.365,6.427-2.365a8.3,8.3,0,0,1,.235,6.106,8.85,8.85,0,0,1,2.406,6.19c0,8.863-5.488,10.814-10.712,11.381a5.474,5.474,0,0,1,1.585,4.269c0,3.087-.029,5.568-.029,6.318,0,.6.411,1.326,1.614,1.1a23.039,23.039,0,0,0,16.114-21.86A23.278,23.278,0,0,0,23.478.5Z" transform="translate(0 -0.5)"/>
</svg>
