<svg xmlns="http://www.w3.org/2000/svg" width="40.13" height="39.885" viewBox="0 0 40.13 39.885">
  <g id="conecta-icon-linkedin" transform="translate(0 0.324)">
    <g id="Group_199" data-name="Group 199" transform="translate(0 11.972)">
      <g id="Group_198" data-name="Group 198">
        <rect id="Rectangle_74" data-name="Rectangle 74" width="8.974" height="27.589"/>
      </g>
    </g>
    <g id="Group_201" data-name="Group 201" transform="translate(12.541 11.972)">
      <g id="Group_200" data-name="Group 200">
        <path id="Path_107" data-name="Path 107" d="M180.877,160.324c-.1-.03-.186-.063-.286-.09-.12-.028-.241-.05-.364-.07a8.044,8.044,0,0,0-1.61-.163c-5.232,0-8.55,3.8-9.644,5.275V160H160v27.589h8.974V172.541s6.782-9.446,9.644-2.508v17.557h8.971V168.972A8.948,8.948,0,0,0,180.877,160.324Z" transform="translate(-160 -160)"/>
      </g>
    </g>
    <g id="Group_203" data-name="Group 203" transform="translate(0 0)">
      <g id="Group_202" data-name="Group 202">
        <circle id="Ellipse_5" data-name="Ellipse 5" cx="4" cy="4" r="4" transform="translate(0 -0.324)"/>
      </g>
    </g>
  </g>
</svg>
