<svg id="footer-icon-ig" xmlns="http://www.w3.org/2000/svg" width="38.523" height="38.53" viewBox="0 0 38.523 38.53">
  <path id="Path_15" data-name="Path 15" d="M38.873,11.328a14.079,14.079,0,0,0-.9-4.674A9.87,9.87,0,0,0,32.34,1.016a14.115,14.115,0,0,0-4.674-.9C25.6.023,24.949,0,19.717,0s-5.886.023-7.941.113a14.083,14.083,0,0,0-4.674.9A9.4,9.4,0,0,0,3.685,3.237a9.486,9.486,0,0,0-2.22,3.41,14.117,14.117,0,0,0-.9,4.674c-.1,2.063-.121,2.717-.121,7.949s.023,5.886.113,7.941a14.078,14.078,0,0,0,.9,4.674,9.868,9.868,0,0,0,5.638,5.638,14.117,14.117,0,0,0,4.674.9c2.055.091,2.71.113,7.941.113s5.886-.022,7.941-.113a14.075,14.075,0,0,0,4.674-.9,9.855,9.855,0,0,0,5.638-5.638,14.126,14.126,0,0,0,.9-4.674c.09-2.055.113-2.71.113-7.941s-.008-5.886-.1-7.941ZM35.4,27.059a10.561,10.561,0,0,1-.662,3.575,6.392,6.392,0,0,1-3.658,3.658,10.6,10.6,0,0,1-3.575.662c-2.032.091-2.642.113-7.783.113s-5.758-.022-7.783-.113a10.555,10.555,0,0,1-3.575-.662,5.929,5.929,0,0,1-2.213-1.438,5.99,5.99,0,0,1-1.438-2.213,10.6,10.6,0,0,1-.662-3.575c-.091-2.032-.113-2.642-.113-7.783s.022-5.758.113-7.783a10.556,10.556,0,0,1,.662-3.575A5.856,5.856,0,0,1,6.162,5.713,5.981,5.981,0,0,1,8.375,4.275a10.605,10.605,0,0,1,3.575-.662c2.032-.09,2.642-.113,7.783-.113s5.758.023,7.783.113a10.561,10.561,0,0,1,3.575.662A5.925,5.925,0,0,1,33.3,5.713a5.989,5.989,0,0,1,1.438,2.213A10.6,10.6,0,0,1,35.4,11.5c.09,2.032.113,2.642.113,7.783s-.023,5.743-.113,7.775Zm0,0" transform="translate(-0.449 0)" fill="#fff"/>
  <path id="Path_16" data-name="Path 16" d="M134.847,124.5a9.9,9.9,0,1,0,9.9,9.9A9.9,9.9,0,0,0,134.847,124.5Zm0,16.319a6.421,6.421,0,1,1,6.421-6.421A6.422,6.422,0,0,1,134.847,140.819Zm0,0" transform="translate(-115.578 -115.129)" fill="#fff"/>
  <path id="Path_17" data-name="Path 17" d="M367.071,90.913A2.311,2.311,0,1,1,364.76,88.6,2.311,2.311,0,0,1,367.071,90.913Zm0,0" transform="translate(-335.202 -81.933)" fill="#fff"/>
</svg>
