<svg id="conecta-icon-instagram" xmlns="http://www.w3.org/2000/svg" width="40.13" height="40.131" viewBox="0 0 40.13 40.131">
  <path id="Path_104" data-name="Path 104" d="M16.143,5.838a10.3,10.3,0,1,0,10.3,10.3,10.3,10.3,0,0,0-10.3-10.3Zm0,16.98a6.683,6.683,0,1,1,6.683-6.683A6.681,6.681,0,0,1,16.143,22.818Z" transform="translate(3.929 3.923)"/>
  <path id="Path_105" data-name="Path 105" d="M28.339.127C24.647-.046,15.5-.037,11.807.127,8.56.279,5.7,1.063,3.386,3.372-.473,7.231.02,12.432.02,20.058c0,7.805-.435,12.885,3.366,16.686,3.874,3.873,9.15,3.366,16.686,3.366,7.732,0,10.4.005,13.134-1.053,3.717-1.443,6.523-4.765,6.8-10.733.174-3.694.164-12.837,0-16.532C39.672,4.747,35.891.474,28.339.127ZM34.182,34.19c-2.53,2.53-6.04,2.3-14.159,2.3-8.36,0-11.713.124-14.159-2.329-2.817-2.8-2.307-7.307-2.307-14.134,0-9.238-.948-15.891,8.324-16.366,2.13-.075,2.757-.1,8.12-.1l.075.05c8.911,0,15.9-.933,16.321,8.337.1,2.115.117,2.751.117,8.1,0,8.263.156,11.636-2.331,14.134Z" transform="translate(0 -0.001)"/>
  <ellipse id="Ellipse_4" data-name="Ellipse 4" cx="2.406" cy="2.406" rx="2.406" ry="2.406" transform="translate(28.371 6.948)"/>
</svg>
