<svg id="footer-icon-linkedin" xmlns="http://www.w3.org/2000/svg" width="35.91" height="34.324" viewBox="0 0 35.91 34.324">
  <path id="Path_20" data-name="Path 20" d="M4.355-.668a4.012,4.012,0,1,0-.1,8H4.3a4.014,4.014,0,1,0,.051-8Zm0,0" transform="translate(0 0.668)" fill="#fff"/>
  <path id="Path_21" data-name="Path 21" d="M8.109,198.313h7.7v23.16h-7.7Zm0,0" transform="translate(-7.654 -187.148)" fill="#fff"/>
  <path id="Path_22" data-name="Path 22" d="M235.85,188.625c-4.153,0-6.937,3.9-6.937,3.9v-3.359h-7.7v23.16h7.7V199.395a5.276,5.276,0,0,1,.254-1.879,4.214,4.214,0,0,1,3.95-2.815c2.785,0,3.9,2.124,3.9,5.237v12.39h7.7V199.049c0-7.114-3.8-10.424-8.862-10.424Zm0,0" transform="translate(-208.803 -178.004)" fill="#fff"/>
</svg>
