<svg id="aftereffects-icon" xmlns="http://www.w3.org/2000/svg" width="37.834" height="36.888" viewBox="0 0 37.834 36.888">
  <path id="Path_132" data-name="Path 132" d="M6.7,0H31.134a6.694,6.694,0,0,1,6.7,6.7V30.188a6.694,6.694,0,0,1-6.7,6.7H6.7a6.694,6.694,0,0,1-6.7-6.7V6.7A6.694,6.694,0,0,1,6.7,0Z" fill="#00005b"/>
  <path id="Path_133" data-name="Path 133" d="M40.207,72.78H34.342l-1.2,3.72a.276.276,0,0,1-.3.221H29.881c-.173,0-.221-.095-.173-.284l5.076-14.55c.047-.158.095-.3.158-.489a5.507,5.507,0,0,0,.095-1.025.156.156,0,0,1,.126-.173h4.083c.11,0,.189.047.2.126L45.2,76.406c.047.173,0,.252-.158.252H41.752a.238.238,0,0,1-.252-.173L40.207,72.7Zm-4.95-3.137h4c-.095-.331-.221-.725-.363-1.135-.142-.426-.284-.883-.426-1.356-.158-.489-.3-.962-.457-1.45s-.3-.946-.426-1.4c-.126-.441-.236-.851-.347-1.23h-.032a19.356,19.356,0,0,1-.536,2.034c-.236.757-.473,1.545-.725,2.333-.2.8-.457,1.545-.694,2.207Z" transform="translate(-25.01 -50.71)" fill="#99f"/>
  <path id="Path_134" data-name="Path 134" d="M141.26,91.656h-5a3.474,3.474,0,0,0,.489,1.4A2.5,2.5,0,0,0,137.9,94a4.9,4.9,0,0,0,2.018.394,9.482,9.482,0,0,0,1.639-.173,5.92,5.92,0,0,0,1.4-.363c.079-.063.126-.032.126.126V96.4a.791.791,0,0,1-.032.189.368.368,0,0,1-.11.11,6.745,6.745,0,0,1-1.576.473,10.649,10.649,0,0,1-2.239.189,7.471,7.471,0,0,1-3.027-.552,5.308,5.308,0,0,1-1.986-1.5,5.785,5.785,0,0,1-1.088-2.065,8.167,8.167,0,0,1,.063-4.808,6.433,6.433,0,0,1,1.182-2.16,5.713,5.713,0,0,1,1.907-1.5,5.954,5.954,0,0,1,2.633-.489,5.7,5.7,0,0,1,2.443.489,4.342,4.342,0,0,1,1.655,1.261,5.771,5.771,0,0,1,.946,1.8,6.2,6.2,0,0,1,.3,1.923c0,.378-.016.709-.032,1.009-.032.3-.047.52-.063.662a.235.235,0,0,1-.221.2c-.095,0-.268.016-.52.032a7.462,7.462,0,0,1-.914.047C142.048,91.719,141.67,91.656,141.26,91.656Zm-5-2.3h3.326c.41,0,.709,0,.9-.016a.771.771,0,0,0,.363-.126v-.158a1.809,1.809,0,0,0-.095-.583,2.086,2.086,0,0,0-2.049-1.45,2.22,2.22,0,0,0-2.1,1.2A3.267,3.267,0,0,0,136.263,89.355Z" transform="translate(-111.781 -71.005)" fill="#99f"/>
</svg>
