<?xml version="1.0" encoding="UTF-8"?>
<svg
    id="Layer_1"
    data-name="Layer 1"
    xmlns="http://www.w3.org/2000/svg"
    width="51.74"
    height="64.63"
    viewBox="0 0 51.74 64.63">
  <defs>
    <style>
      .cls-1 {
        fill: #8e4f26;
        stroke-width: 0px;
      }
    </style>
  </defs>
  <path class="cls-1" d="m4.09,36.88s-.03.08-.04.13c-.02.07-.05.13-.07.21-.06.17-.13.36-.2.56-.04.11-.08.23-.13.35-.04.1-.07.19-.11.29l.55-1.53Z"/>
  <path class="cls-1" d="m30.72,39.5c-.17-.43-.48-1.41-.96-2.84l.96,2.84Z"/>
  <path class="cls-1" d="m51.74,0v.77c-1.98.03-3.63-.11-3.63,1.33,0,1.18-.05,3.11-.08,5.12v38.85c0,9.94-8.13,18.44-18.07,18.57-10.36.14-18.77-8.32-18.57-18.7.18-8.95,6.89-16.4,15.53-17.73l-2.81-8.32L17.43,1.33l-6.67,18.55-6.03,17.88-.07.2c-.69,2.14.41,2.72,2.42,2.72v.49H0v-.49c.72,0,1.3-.07,1.75-.22s.84-.41,1.18-.79c.16-.18.38-.67.6-1.23,0,0,0-.02.01-.03.04-.1.07-.19.11-.29.04-.12.09-.23.13-.35.07-.19.14-.39.2-.56.02-.07.05-.14.07-.21.01-.05.03-.09.04-.13,0-.01,0-.03.01-.04.02-.06.04-.12.06-.17l6.03-16.78L17.29.14s.06-.08.11-.08h.87c.05,0,.1.04.12.09l7.1,19.74,2.93,8.15c.31-.02.63-.04.95-.04,4.97-.09,9.5,1.8,12.85,4.94l-.44.53c-3.01-2.81-7.78-4.64-12.24-4.57-.27,0-.53.02-.79.04l2.15,5.99.28.75c.19.53.36,1.02.51,1.46,0,.02.01.04.02.07.05.16.11.31.16.45.03.08.06.16.09.24.24.64.49,1.19.82,1.68.67,1,2.39,1.1,3.67,1.1v.49h-8.96v-.49c1.42,0,3.4-.3,3.24-1.09,0-.03-.02-.06-.03-.09l-.96-2.84-.1-.29c-.08-.23-.16-.47-.24-.72l-2.2-6.53c-7.58,1.36-13.6,8.59-13.96,16.43-.42,9.4,7.04,17.16,16.34,17.22,9.17.06,16.56-7.55,16.56-16.73V2.1c0-1.41-1.78-1.33-3.74-1.33v-.77h9.31Z"/>
</svg>
