<svg id="answerthepublic-icon" xmlns="http://www.w3.org/2000/svg" width="83.068" height="23.748" viewBox="0 0 83.068 23.748">
  <path id="Path_153" data-name="Path 153" d="M94.72,2.918c.9.021,2.188.021,2.928,0a1.666,1.666,0,0,0,.006-.183c0-.6-.387-.93-1.348-.93-1.021,0-1.492.308-1.582,1.113m-.013.55c.078.807.586,1.147,1.61,1.147s1.323-.4,1.336-.81c.136.014.833.014.956,0,.026.889-.407,1.584-2.3,1.584-1.64,0-2.582-.7-2.582-2.185s.961-2.147,2.587-2.147c1.678,0,2.3.659,2.3,1.758,0,.272-.013.469-.026.658-.445-.006-1.22-.006-2.156-.006Zm-3,1.785c.013-.543.02-1.276.02-2.165,0-.794-.349-1.107-1.259-1.107-.852,0-1.53.385-1.53,1.3,0,1.161.007,1.608.013,1.975h-1.1c.019-.59.019-1.113.019-2.1,0-1.113-.007-2.287-.019-3.156h1.11c-.012.468-.012.834-.019,1.255,0,.265-.007,1.174-.013,1.462l.032.007a1.721,1.721,0,0,1,1.95-1.642c1.187,0,1.885.523,1.885,1.7,0,.523-.013.807-.013,1.161,0,.462,0,.882.019,1.3ZM87.1,0c-.006.129-.006.319-.006.495s0,.373.006.509c-.71-.013-1.407-.02-2-.02,0,1.9.007,3.848.019,4.276-.146-.014-.4-.014-.568-.014s-.406,0-.568.014c.02-.428.026-2.369.026-4.276-.6,0-1.3.007-2.008.02.007-.135.007-.346.007-.509S82.007.135,82,0Z" transform="translate(-45.181)" fill="#f16434"/>
  <path id="Path_154" data-name="Path 154" d="M138.422,1.1c-1.591,0-1.83.855-1.943,1.482l-.039-.014c.013-.285.019-1.1.019-1.395h0c0-.474,0-.794.013-1.173h-1.084c.007.615.013,1.569.013,2.769,0,1.045-.006,1.8-.019,2.483h1.077V4.578l-.006-.35h.058c.068.446.542,1.1,1.9,1.1A1.9,1.9,0,0,0,140.487,3.2,1.832,1.832,0,0,0,138.422,1.1Zm3.022,4.152c.019-.842.019-1.642.019-2.578,0-1.059,0-1.757-.019-2.673h1.078c-.022.732-.021,1.326-.02,2.15h0c0,.176,0,.363,0,.563s0,.405,0,.591c0,.7,0,1.27.014,1.947Zm2.227-4.9c0,.208.1.385.665.385S145,.565,145,.355s-.1-.352-.659-.352S143.671.147,143.671.355Zm6.677,3.35a1.1,1.1,0,0,1-.489-.083V3.7c-.026.482-.4.794-1.421.794-1.065,0-1.6-.4-1.6-1.308,0-.889.535-1.269,1.581-1.269,1.072,0,1.4.278,1.434.787v.082h.961v-.1c0-1.194-.846-1.629-2.395-1.629-1.659,0-2.589.719-2.589,2.144s.936,2.184,2.57,2.184c1.891,0,2.44-.739,2.44-1.682V3.623A1.1,1.1,0,0,1,150.347,3.7Zm-5.48-2.521a.938.938,0,0,1-.528.109.97.97,0,0,1-.539-.112h0v4.07h1.072Zm-10.732,0c-.019.549-.019,1.052-.019,1.974,0,.889,0,1.533.019,2.1h-1.1c0-.107,0-.271.007-.454,0-.361.011-.794.019-1l-.039-.007V3.8c-.155.715-.335,1.544-1.929,1.544-1.2,0-1.9-.529-1.9-1.717,0-.3,0-.515.008-.709h0c0-.157.005-.3.005-.457,0-.455,0-.862-.019-1.276h1.1c-.019.539-.026,1.289-.026,2.184,0,.794.349,1.119,1.259,1.119.852,0,1.537-.393,1.537-1.3,0-1.173-.007-1.642-.013-2.008Zm-5.81.672c0-1.4-.813-1.852-2.208-1.852H123c.026.7.026,1.458.026,2.543h0c0,1.085,0,1.975-.026,2.707h1.187c-.026-.367-.038-.995-.044-1.533.852.027,1.285.027,1.956.027h0C127.538,3.745,128.326,3.175,128.326,1.852ZM125.918.909c.924,0,1.317.244,1.317.956s-.368.957-1.349.957c-.448,0-.885-.005-1.229-.009h0c-.223,0-.406,0-.528,0V.93C124.6.916,125.552.909,125.918.909Zm10.523,3.2a2.762,2.762,0,0,0,1.543.394c1,0,1.471-.435,1.471-1.3s-.49-1.256-1.432-1.249c-.865,0-1.582.366-1.582,1.208Z" transform="translate(-67.771)" fill="#f16434" fill-rule="evenodd"/>
  <path id="Path_155" data-name="Path 155" d="M4.817,4.131l.043.1h0c.2.469.361.847.414,1.018H6.639C6.046,4.172,4.985,1.859,4.415.615,4.3.357,4.2.145,4.132,0H2.469C2.127.789.67,4.009,0,5.25H1.272c.079-.2.248-.581.45-1.03l.04-.089c.535-.007,1.115-.007,1.508-.007h0C3.71,4.124,4.263,4.124,4.817,4.131Zm10.572.438c-1.115,0-1.5-.167-1.5-.615l0-.1a3.057,3.057,0,0,1-.464.021,4.249,4.249,0,0,1-.463-.021c0,.035,0,.068,0,.1s0,.06,0,.09c0,.875.625,1.323,2.4,1.323,1.708,0,2.32-.448,2.32-1.289,0-.8-.412-1.16-2.107-1.248-1.421-.068-1.608-.238-1.608-.522,0-.308.29-.462,1.3-.462,1.058,0,1.38.176,1.38.577v.122l.157,0h0c.089,0,.194,0,.294,0,.172,0,.354.006.464.013l0-.045h0c0-.055.009-.1.009-.159,0-.956-.748-1.289-2.288-1.289-1.669,0-2.275.421-2.275,1.242,0,.739.444,1.173,2.14,1.255,1.373.055,1.585.222,1.585.529C16.736,4.42,16.427,4.57,15.389,4.57Zm12.805.045c-1.023,0-1.53-.339-1.608-1.146h1.723c.935,0,1.708,0,2.152.006.013-.189.026-.386.026-.658,0-1.1-.619-1.757-2.294-1.757-1.625,0-2.591.659-2.591,2.144s.941,2.184,2.578,2.184c1.9,0,2.326-.61,2.3-1.5a4.349,4.349,0,0,1-.458.02c-.2,0-.361-.007-.5-.02C29.515,4.3,29.231,4.614,28.194,4.614Zm5.895-3.5c-1.3,0-1.468,1.032-1.541,1.9L32.5,3c0-.118,0-.314.006-.535,0-.48.011-1.083.02-1.287h-.99c.013.587.019,1.173.019,2.049s-.006,1.459-.019,2.022h1.121c-.026-.407-.026-1.181-.026-1.811A1.177,1.177,0,0,1,33.964,2.1a2.285,2.285,0,0,1,.95.176c.012-.267.071-.769.11-1A2.686,2.686,0,0,0,34.089,1.114ZM24.374,4.042h0c-.186.512-.347.955-.444,1.21-.155-.007-.361-.007-.6-.007h0c-.292,0-.548,0-.657.007-.146-.434-.451-1.377-.709-2.226-.1-.325-.193-.624-.264-.868h-.026l-.024.083h0c-.068.235-.149.514-.253.8-.264.814-.58,1.737-.748,2.212-.06,0-.144,0-.238-.006-.117,0-.249-.008-.367-.008-.271,0-.439.007-.542.014-.1-.27-.25-.692-.418-1.173-.352-1.006-.792-2.264-1.084-2.9h1.178c.077.308.483,1.624.741,2.424.116.339.193.591.251.787h.019c.038-.106.079-.231.125-.374s.09-.278.146-.44c.264-.8.612-1.956.715-2.4.155.007.484.007.67.007h0c.175,0,.4,0,.555-.007.1.421.432,1.6.709,2.424.115.3.2.549.257.738h0l.02.062h.026l.036-.124v0h0c.052-.177.115-.4.207-.667.251-.807.632-2.038.731-2.431h1.056c-.259.63-.711,1.871-1.07,2.859h0ZM10.876,5.25c.013-.529.02-1.269.02-2.154,0-.787-.341-1.119-1.257-1.119-.851,0-1.527.385-1.527,1.282,0,1.154.006,1.628.012,1.995H7.035c.019-.55.019-1.059.019-1.974,0-.9-.007-1.533-.019-2.1h1.1c0,.113,0,.3-.007.51h0c0,.38-.01.829-.018,1.027l.039.007a1.849,1.849,0,0,1,1.933-1.635c1.212,0,1.889.522,1.889,1.75,0,.292,0,.5-.008.689h0c0,.152-.006.289-.006.443,0,.448.007.862.02,1.276ZM1.989,3.662c.271-.6,1.3-3.017,1.3-3.017L4.609,3.662c-.468.008-.973.008-1.339.008h0C2.926,3.669,2.443,3.669,1.989,3.662Zm24.628-.744c.9.021,2.187.021,2.922,0a1.568,1.568,0,0,0,.007-.183c0-.6-.387-.929-1.348-.929C27.178,1.806,26.707,2.113,26.617,2.918Z" fill="#f16434" fill-rule="evenodd"/>
  <path id="Path_156" data-name="Path 156" d="M26,25.956h.613v1.522a1.133,1.133,0,0,1,.949-.468,1.4,1.4,0,0,1,1.393,1.544,1.424,1.424,0,0,1-1.432,1.533,1.176,1.176,0,0,1-.943-.454v.381H26ZM27.46,29.55a1.005,1.005,0,1,0-.871-.989A.9.9,0,0,0,27.46,29.55Z" transform="translate(-5.344 -11.302)" fill="#202020"/>
  <path id="Path_157" data-name="Path 157" d="M30.9,31.377l.416-1.056-1.163-2.879h.658l.792,2.133.78-2.133h.641l-1.531,3.935Z" transform="translate(-6.349 -11.661)" fill="#202020"/>
  <path id="Path_158" data-name="Path 158" d="M58.548,30.786a1.3,1.3,0,0,0,1.086-.586v.52h.721V26.413h-.721v1.672a1.312,1.312,0,0,0-1.086-.548,1.5,1.5,0,0,0-1.471,1.615v.019A1.508,1.508,0,0,0,58.548,30.786Zm.174-.623a.935.935,0,0,1-.913-.992v-.019a.924.924,0,0,1,.913-.992.936.936,0,0,1,.923.992v.019A.943.943,0,0,1,58.721,30.163Zm2.528-3.042h.779v-.68h-.779Zm.029,3.6h.73V27.6h-.73Zm3.066.954a1.794,1.794,0,0,0,1.3-.416,1.575,1.575,0,0,0,.4-1.181V27.6h-.721v.463A1.441,1.441,0,0,0,62.769,29v.009a1.414,1.414,0,0,0,1.442,1.464,1.322,1.322,0,0,0,1.115-.576v.245a.879.879,0,0,1-1,.954,2.09,2.09,0,0,1-1.134-.331l-.27.538A2.832,2.832,0,0,0,64.344,31.675Zm.058-1.8a.86.86,0,0,1-.9-.86v-.019a.847.847,0,0,1,.9-.85.885.885,0,0,1,.932.86v.009A.891.891,0,0,1,64.4,29.87Zm2.537-2.749h.779v-.68h-.779Zm.029,3.6h.73V27.6h-.73Zm2.71.057a1.358,1.358,0,0,0,.653-.16v-.586a1.056,1.056,0,0,1-.452.1.341.341,0,0,1-.385-.387v-1.53h.846V27.6h-.846v-.86h-.73v.86h-.4v.614h.4v1.643A.808.808,0,0,0,69.678,30.777Zm4.037-.057V28.869a1.215,1.215,0,0,0-1.394-1.313,2.785,2.785,0,0,0-1.211.255l.2.576a2.149,2.149,0,0,1,.9-.2c.5,0,.779.236.779.67v.057a2.727,2.727,0,0,0-.875-.123c-.74,0-1.288.331-1.288,1.02v.009a1.013,1.013,0,0,0,1.134.964,1.3,1.3,0,0,0,1.028-.453v.388Zm-.7-1.124c0,.387-.365.652-.846.652-.346,0-.615-.17-.615-.463v-.009c0-.3.27-.482.73-.482a2.062,2.062,0,0,1,.73.123v.18ZM74.59,30.72h.73V26.413h-.73Z" transform="translate(-12.855 -11.412)" fill="#202020"/>
  <path id="Path_159" data-name="Path 159" d="M37.788,20.907H50.937V33.829H37.788Zm2.509,8.53h.73V26.5l2.317,2.938h.615V25.3h-.721v2.863L40.98,25.3H40.3v4.137Zm4.882,0h.74V28.1h.836c.923,0,1.682-.482,1.682-1.408v-.009a1.416,1.416,0,0,0-1.6-1.389H45.179Zm.741-1.984V25.97h.856c.557,0,.9.245.9.736v.009c0,.435-.346.736-.9.736h-.856Zm-7.4-5.828h11.7v11.5h-11.7Z" transform="translate(-8.193 -10.082)" fill="#f16434" fill-rule="evenodd"/>
</svg>
