<svg id="Group_331" data-name="Group 331" xmlns="http://www.w3.org/2000/svg" width="37" height="31.797" viewBox="0 0 37 31.797">
  <path id="Path_164" data-name="Path 164" d="M319.227,38.89h-2.409l.385-.289a1.445,1.445,0,1,0-1.734-2.313l-2.312,1.734a2.891,2.891,0,0,0,0,4.627l2.312,1.734A1.445,1.445,0,0,0,317.2,42.07l-.385-.289h2.409a4.341,4.341,0,0,1,4.336,4.336V57.679a4.341,4.341,0,0,1-4.336,4.336h-5.781a1.445,1.445,0,1,0,0,2.891h5.781a7.235,7.235,0,0,0,7.227-7.227V46.117A7.235,7.235,0,0,0,319.227,38.89Z" transform="translate(-289.453 -36)" fill="#e0ff04"/>
  <path id="Path_165" data-name="Path 165" d="M84.336,196a4.336,4.336,0,0,0,0,8.672H95.32a4.336,4.336,0,1,0,0-8.672Zm12.43,4.336a1.447,1.447,0,0,1-1.445,1.445H84.336a1.445,1.445,0,0,1,0-2.891H95.32A1.447,1.447,0,0,1,96.766,200.337Z" transform="translate(-74.219 -184.438)" fill="#e0ff04"/>
  <path id="Path_166" data-name="Path 166" d="M4.336,44.673H15.32a4.336,4.336,0,0,0,0-8.672H4.336a4.336,4.336,0,0,0,0,8.672Zm0-5.781H15.32a1.445,1.445,0,0,1,0,2.891H4.336a1.445,1.445,0,0,1,0-2.891Z" transform="translate(0 -36.001)" fill="#e0ff04"/>
  <path id="Path_167" data-name="Path 167" d="M15.32,364.673a4.336,4.336,0,1,0,0-8.672H4.336a4.336,4.336,0,1,0,0,8.672Zm-12.43-4.336a1.447,1.447,0,0,1,1.445-1.445H15.32a1.445,1.445,0,0,1,0,2.891H4.336A1.447,1.447,0,0,1,2.891,360.337Z" transform="translate(0 -332.876)" fill="#e0ff04"/>
</svg>
