<svg xmlns="http://www.w3.org/2000/svg" width="37" height="37" viewBox="0 0 37 37">
  <path id="copywriting" d="M18.5,37A18.5,18.5,0,0,1,5.418,5.418,18.5,18.5,0,0,1,31.582,31.582,18.379,18.379,0,0,1,18.5,37Zm0-34.109A15.609,15.609,0,1,0,34.109,18.5,15.627,15.627,0,0,0,18.5,2.891ZM16.121,29.123l3.794-.016A10.453,10.453,0,0,0,29.043,23.7a1.445,1.445,0,0,0-2.585-1.293,7.531,7.531,0,0,1-6.609,3.811l-3.739.016a1.445,1.445,0,0,0,.006,2.891ZM15.06,13.267a3.124,3.124,0,0,1,.91,2.342,1.807,1.807,0,1,1-3.579-.351,4.646,4.646,0,0,0-2.4,1.063,1.445,1.445,0,1,1-1.764-2.29,7.3,7.3,0,0,1,4.567-1.673,3.259,3.259,0,0,1,2.269.91Zm10.016-.909a7.3,7.3,0,0,0-4.567,1.673,1.445,1.445,0,1,0,1.764,2.29,4.647,4.647,0,0,1,2.4-1.063,1.807,1.807,0,1,0,3.579.351,3.125,3.125,0,0,0-.91-2.342A3.258,3.258,0,0,0,25.076,12.357Z" transform="translate(0 0)" fill="#e0ff04"/>
</svg>
