<svg id="CSS" xmlns="http://www.w3.org/2000/svg" width="22.787" height="35.517" viewBox="0 0 22.787 35.517">
  <path id="polygon2989" d="M97.421,100.62,95.344,126.3l-9.332,2.857L76.707,126.3,74.633,100.62Z" transform="translate(-74.633 -93.64)" fill="#264de4"/>
  <path id="polygon2991" d="M264.326,152.839l1.959-21.945H256v24.254Z" transform="translate(-245.794 -121.814)" fill="#2965f1"/>
  <path id="polygon2993" d="M150.31,268.217l.282,3.15h7.049v-3.15Z" transform="translate(-145.76 -249.611)" fill="#ebebeb"/>
  <path id="polygon2995" d="M150.031,176.3h-7.9l.286,3.15h7.613Z" transform="translate(-138.094 -164.075)" fill="#ebebeb"/>
  <path id="polygon2997" d="M163.318,343.066v-3.277l-.014,0-3.508-.947-.224-2.512h-3.162l.441,4.946,6.453,1.791Z" transform="translate(-151.474 -313.002)" fill="#ebebeb"/>
  <path id="path2999" d="M160,0h3.815V1.6H161.6v1.6h2.22v1.6H160Z" transform="translate(-154.737)"/>
  <path id="path3001" d="M226,0h3.815V1.387H227.6v.277h2.22V4.856H226V3.4h2.22V3.122H226Z" transform="translate(-216.668)"/>
  <path id="path3003" d="M292,0h3.815V1.387H293.6v.277h2.22V4.856H292V3.4h2.22V3.122H292Z" transform="translate(-278.599)"/>
  <path id="polygon3005" d="M259.722,185.831l-.366,4.085-3.513.948v3.277l6.458-1.79.047-.532.74-8.293.077-.846.569-6.376h-7.891v3.15h4.439L260,182.681h-4.152v3.15Z" transform="translate(-245.001 -164.075)" fill="#fff"/>
</svg>
