<svg id="HTML" xmlns="http://www.w3.org/2000/svg" width="25.167" height="35.517" viewBox="0 0 25.167 35.517">
  <path id="Path_112" data-name="Path 112" d="M108.4,0H110V1.582h1.471V0h1.6V4.787h-1.6v-1.6h-1.457v1.6H108.4M115.17,1.6h-1.408V0h4.419V1.6h-1.415V4.787h-1.6M118.882,0h1.672l1.027,1.686L122.607,0h1.672V4.787h-1.6V2.414l-1.117,1.72-1.117-1.72V4.787h-1.568M125.07,0h1.6V3.2h2.261V4.787H125.07" transform="translate(-106.055)"/>
  <path id="Path_113" data-name="Path 113" d="M76.889,126.295,74.6,100.6H99.767l-2.289,25.681-10.315,2.858" transform="translate(-74.6 -93.621)" fill="#e44d26"/>
  <path id="Path_114" data-name="Path 114" d="M256,155.245V131h10.288l-1.963,21.921" transform="translate(-243.416 -121.913)" fill="#f16529"/>
  <path id="Path_115" data-name="Path 115" d="M142,176.3h7.908v3.149h-4.454l.291,3.226h4.162v3.142H142.86M143,187.4h3.163l.222,2.518,3.524.943v3.288l-6.465-1.8" transform="translate(-137.324 -164.07)" fill="#ebebeb"/>
  <path id="Path_116" data-name="Path 116" d="M263.694,176.3H255.8v3.149h7.6m-.284,3.226H255.8v3.149h3.885l-.368,4.093-3.517.943v3.274l6.451-1.79" transform="translate(-243.23 -164.07)" fill="#fff"/>
</svg>
