<svg id="ilustrador-icon" xmlns="http://www.w3.org/2000/svg" width="37.834" height="36.888" viewBox="0 0 37.834 36.888">
  <path id="Path_127" data-name="Path 127" d="M6.7,0H31.134a6.694,6.694,0,0,1,6.7,6.7V30.188a6.694,6.694,0,0,1-6.7,6.7H6.7a6.694,6.694,0,0,1-6.7-6.7V6.7A6.694,6.694,0,0,1,6.7,0Z" fill="#300"/>
  <path id="Path_128" data-name="Path 128" d="M59.807,65.788H53.942l-1.2,3.7a.276.276,0,0,1-.3.221H49.481c-.173,0-.221-.095-.173-.284l5.076-14.613c.047-.158.095-.331.158-.52a5.506,5.506,0,0,0,.095-1.025.156.156,0,0,1,.126-.173h4.083c.126,0,.189.047.2.126L64.8,69.461c.047.173,0,.252-.158.252H61.352a.238.238,0,0,1-.252-.173Zm-4.95-3.2h4c-.095-.331-.221-.725-.363-1.135-.142-.426-.284-.883-.426-1.356-.158-.489-.3-.962-.457-1.45s-.3-.946-.426-1.4c-.126-.441-.236-.851-.347-1.23h-.032a19.354,19.354,0,0,1-.536,2.034c-.236.757-.473,1.545-.725,2.333C55.33,61.185,55.093,61.926,54.857,62.588Zm13.463-6.731a1.951,1.951,0,0,1-1.4-.552,2.048,2.048,0,0,1-.536-1.45,1.855,1.855,0,0,1,.568-1.4,2.019,2.019,0,0,1,1.4-.552,1.888,1.888,0,0,1,1.435.552,2.167,2.167,0,0,1-.032,2.853,1.854,1.854,0,0,1-1.435.552ZM66.554,69.54V57.4c0-.158.063-.221.2-.221H69.88c.142,0,.2.079.2.221V69.54c0,.173-.063.252-.2.252H66.79A.221.221,0,0,1,66.554,69.54Z" transform="translate(-41.52 -43.718)" fill="#ff9a00"/>
</svg>
