<svg id="JavaScript" xmlns="http://www.w3.org/2000/svg" width="25.168" height="25.168" viewBox="0 0 25.168 25.168">
  <path id="Path_117" data-name="Path 117" d="M0,0H25.168V25.168H0Z" fill="#f7df1e"/>
  <path id="Path_118" data-name="Path 118" d="M67.311,125.766l1.926-1.166c.372.659.71,1.216,1.52,1.216.777,0,1.267-.3,1.267-1.486v-8.042H74.39v8.075a3.212,3.212,0,0,1-3.531,3.565,3.671,3.671,0,0,1-3.548-2.162m8.363-.253L77.6,124.4a2.574,2.574,0,0,0,2.331,1.436c.98,0,1.6-.49,1.6-1.166,0-.811-.642-1.1-1.723-1.571l-.591-.254c-1.706-.726-2.838-1.639-2.838-3.564a3.161,3.161,0,0,1,3.463-3.126,3.493,3.493,0,0,1,3.362,1.892l-1.842,1.183a1.61,1.61,0,0,0-1.52-1.014,1.029,1.029,0,0,0-1.132,1.014c0,.71.439,1,1.453,1.436l.591.253c2.01.862,3.142,1.74,3.142,3.717,0,2.129-1.672,3.294-3.919,3.294a4.543,4.543,0,0,1-4.308-2.416" transform="translate(-60.694 -104.734)"/>
</svg>
