<svg xmlns="http://www.w3.org/2000/svg" width="44.205" height="31.049" viewBox="0 0 44.205 31.049">
  <g id="landing-site-icon" transform="translate(0)">
    <path id="Shape_296_" d="M206.867,164.625a.711.711,0,0,0-.539,0c-1.231.506-3.955,1.946-4.4,4.849h9.337C210.822,166.571,208.1,165.131,206.867,164.625Z" transform="translate(-184.495 -164.572)" fill="#393941"/>
    <path id="Shape_295_" d="M37.547,431.829a1.512,1.512,0,0,1-1.646.516,3.773,3.773,0,0,0-1.168-.185,3.913,3.913,0,0,0-3.289,1.825,1.52,1.52,0,0,1-1.55.687,3.886,3.886,0,0,0-2.485.388,1.49,1.49,0,0,1-.71.179,1.59,1.59,0,0,1-1.221-.589,2.379,2.379,0,0,0-.974-.7,2.483,2.483,0,0,1-1.612-2.321v-1.1H21.313v1.1a2.483,2.483,0,0,1-1.616,2.321,2.373,2.373,0,0,0-.973.7,1.6,1.6,0,0,1-1.221.588,1.509,1.509,0,0,1-.71-.178,3.873,3.873,0,0,0-2.486-.388,1.511,1.511,0,0,1-1.548-.687,3.913,3.913,0,0,0-3.287-1.825,3.782,3.782,0,0,0-1.169.185,1.508,1.508,0,0,1-1.645-.516A5.367,5.367,0,0,0,0,430.272v4.34a2.411,2.411,0,0,0,2.368,2.451H41.837a2.411,2.411,0,0,0,2.368-2.451v-4.339A5.367,5.367,0,0,0,37.547,431.829Z" transform="translate(0 -406.014)" fill="#393941"/>
    <ellipse id="Oval_19_" cx="1.579" cy="1.634" rx="1.579" ry="1.634" transform="translate(20.524 9.805)" fill="#393941"/>
    <path id="Shape_294_" d="M201.143,240.983v8.171a1.607,1.607,0,0,0,1.579,1.634h6.315a1.607,1.607,0,0,0,1.579-1.634V237.715h-9.473Zm4.736-1.634a3.27,3.27,0,1,1-3.158,3.268A3.214,3.214,0,0,1,205.879,239.349Z" transform="translate(-183.777 -231.178)" fill="#393941"/>
    <path id="Shape_293_" d="M128,294.262v1.546a.8.8,0,0,0,.789.817h3.947v-5.883l-4.365,2.827A.825.825,0,0,0,128,294.262Z" transform="translate(-116.949 -279.466)" fill="#393941"/>
    <path id="Shape_292_" d="M333.879,295.809v-1.546a.824.824,0,0,0-.371-.693l-4.365-2.827v5.883h3.947A.8.8,0,0,0,333.879,295.809Z" transform="translate(-300.726 -279.467)" fill="#393941"/>
    <path id="Shape_291_" d="M228.714,403.92h4.421c.032,0,.066-.042.079-.054a.439.439,0,0,0,.068-.355l-.256-1.225h-4.2l-.257,1.225a.442.442,0,0,0,.069.356C228.644,403.878,228.679,403.92,228.714,403.92Z" transform="translate(-208.822 -381.042)" fill="#393941"/>
  </g>
</svg>
