<svg xmlns="http://www.w3.org/2000/svg" width="32.277" height="33.227" viewBox="0 0 32.277 33.227">
  <path id="laravel-icon" d="M32.259,7.517a.526.526,0,0,1,.018.136v7.132a.52.52,0,0,1-.261.451l-5.986,3.446v6.831a.521.521,0,0,1-.26.451l-12.5,7.193a.559.559,0,0,1-.091.038c-.012,0-.023.011-.035.014a.523.523,0,0,1-.267,0c-.014,0-.027-.012-.041-.017a.541.541,0,0,1-.086-.035L.261,25.965A.521.521,0,0,1,0,25.514V4.117a.532.532,0,0,1,.018-.137c0-.015.013-.029.018-.044A.512.512,0,0,1,.07,3.857a.486.486,0,0,1,.036-.046.53.53,0,0,1,.046-.06A.508.508,0,0,1,.2,3.711.424.424,0,0,1,.26,3.666h0L6.507.07a.521.521,0,0,1,.52,0l6.247,3.6h0a.637.637,0,0,1,.057.044.615.615,0,0,1,.051.039.608.608,0,0,1,.047.061.479.479,0,0,1,.035.046.543.543,0,0,1,.034.081c.005.015.014.029.018.044a.526.526,0,0,1,.018.136V17.481l5.205-3V7.652a.525.525,0,0,1,.018-.135c0-.016.013-.029.018-.044a.586.586,0,0,1,.034-.081c.01-.017.024-.031.035-.046a.535.535,0,0,1,.047-.06.5.5,0,0,1,.051-.039A.525.525,0,0,1,19,7.2h0l6.247-3.6a.521.521,0,0,1,.52,0l6.247,3.6a.574.574,0,0,1,.059.044c.016.013.035.025.05.039a.608.608,0,0,1,.047.061.393.393,0,0,1,.035.046.515.515,0,0,1,.034.081.372.372,0,0,1,.018.044Zm-1.023,6.967V8.553L29.049,9.812l-3.02,1.739v5.931l5.207-3ZM24.989,25.213V19.278l-2.971,1.7-8.483,4.841v5.991l11.454-6.594ZM1.041,5.018v20.2l11.452,6.593V25.817L6.511,22.431h0a24.666,24.666,0,0,0-.105-.081v0a.5.5,0,0,1-.043-.055.555.555,0,0,1-.039-.051v0a.415.415,0,0,1-.027-.065.385.385,0,0,1-.025-.059h0a.5.5,0,0,1-.01-.076.451.451,0,0,1-.008-.059h0V8.015L3.227,6.275,1.041,5.018Zm5.727-3.9-5.2,3,5.2,3,5.2-3-5.2-3Zm2.707,18.7,3.019-1.738V5.018L10.308,6.276,7.288,8.015V21.078l2.187-1.259ZM25.509,4.657l-5.2,3,5.2,3,5.2-3-5.2-3Zm-.521,6.894-3.02-1.739L19.782,8.553v5.931L22.8,16.222l2.187,1.259V11.55ZM13.014,24.916l7.633-4.358,3.816-2.178-5.2-2.994-5.987,3.447L7.818,21.975l5.2,2.941Z" transform="translate(0 0)" fill="#ff2d20" fill-rule="evenodd"/>
</svg>
