<svg id="MySQL" xmlns="http://www.w3.org/2000/svg" width="41.044" height="27.874" viewBox="0 0 41.044 27.874">
  <path id="Path_123" data-name="Path 123" d="M17.678,92.126H16.094q-.084-4.01-.462-7.541h-.014l-2.411,7.541H12L9.6,84.585H9.59q-.267,3.391-.336,7.541H7.81q.14-5.046.7-9.462h1.963l2.285,6.953h.014l2.3-6.953h1.878q.617,5.172.729,9.462m6.868-6.981a21.313,21.313,0,0,1-2.551,7.629,3.4,3.4,0,0,1-2.705,1.833,2.659,2.659,0,0,1-.967-.236v-.844a4.658,4.658,0,0,0,.659.042,1.592,1.592,0,0,0,1.108-.379,1.382,1.382,0,0,0,.5-1.037,6.9,6.9,0,0,0-.392-1.612l-1.738-5.4h1.556l1.247,4.037a5.447,5.447,0,0,1,.35,1.921,26.367,26.367,0,0,0,1.43-5.958h1.5Z" transform="translate(-7.81 -66.733)" fill="#5d87a1"/>
  <path id="Path_124" data-name="Path 124" d="M85.835,91.807h-4.5V82.345H82.85v8.3h2.985Zm-5.676.229-1.739-.858a3.233,3.233,0,0,0,.435-.423A5.809,5.809,0,0,0,79.962,86.9q0-4.7-3.686-4.7A3.491,3.491,0,0,0,73.459,83.4a5.791,5.791,0,0,0-1.108,3.841,5.609,5.609,0,0,0,.981,3.657,3.361,3.361,0,0,0,2.706,1.052,4.36,4.36,0,0,0,1.239-.166L79.541,93.1Zm-5.635-2.122a5.832,5.832,0,0,1-.575-2.971q0-3.574,2.173-3.575a1.823,1.823,0,0,1,1.668.854,5.774,5.774,0,0,1,.575,2.944q0,3.6-2.173,3.6a1.819,1.819,0,0,1-1.668-.856m-2.833-.729a2.51,2.51,0,0,1-.883,1.976,3.476,3.476,0,0,1-2.368.771,4.742,4.742,0,0,1-2.691-.884l.407-.813a4.6,4.6,0,0,0,2.031.56,2.134,2.134,0,0,0,1.339-.377,1.285,1.285,0,0,0,.515-1.051c0-.562-.392-1.043-1.111-1.445-.663-.364-1.989-1.126-1.989-1.126a2.265,2.265,0,0,1-1.079-2.013,2.351,2.351,0,0,1,.805-1.857,3.036,3.036,0,0,1,2.082-.708,4.317,4.317,0,0,1,2.4.7l-.365.813a4.633,4.633,0,0,0-1.821-.392,1.622,1.622,0,0,0-1.12.351,1.172,1.172,0,0,0-.424.9c0,.559.4,1.046,1.139,1.456.672.365,2.031,1.139,2.031,1.139a2.236,2.236,0,0,1,1.105,2" transform="translate(-48.019 -66.414)" fill="#f8981d"/>
  <path id="Path_125" data-name="Path 125" d="M102.481,43.368a5.283,5.283,0,0,0-2.218.32c-.172.069-.445.069-.469.286.093.092.1.24.184.367a2.657,2.657,0,0,0,.594.7c.24.184.48.365.732.525.445.275.949.435,1.382.709.252.159.5.366.756.537.124.092.2.24.365.3v-.035c-.081-.1-.1-.252-.183-.366l-.343-.331a5.441,5.441,0,0,0-1.189-1.154c-.366-.252-1.167-.595-1.315-1.017l-.023-.023a4.554,4.554,0,0,0,.789-.185c.389-.1.744-.079,1.143-.182.184-.046.366-.1.55-.16v-.1c-.207-.206-.354-.48-.572-.674a15.222,15.222,0,0,0-1.886-1.406c-.355-.229-.812-.377-1.19-.572-.136-.069-.366-.1-.446-.217a4.658,4.658,0,0,1-.469-.88c-.331-.628-.652-1.325-.937-1.99a12.362,12.362,0,0,0-.583-1.3,11.531,11.531,0,0,0-4.424-4.276,5.483,5.483,0,0,0-1.463-.469l-.858-.045a4.545,4.545,0,0,1-.526-.4c-.652-.411-2.332-1.3-2.812-.126-.309.744.457,1.475.72,1.853a5.255,5.255,0,0,1,.582.857c.08.194.1.4.184.606a13.694,13.694,0,0,0,.595,1.532,5.456,5.456,0,0,0,.423.708c.092.127.252.183.286.389a3.281,3.281,0,0,0-.263.857,5.038,5.038,0,0,0,.332,3.841c.182.286.618.915,1.2.674.515-.206.4-.857.549-1.429.034-.138.012-.229.08-.319v.022c.159.32.32.628.468.949a6.519,6.519,0,0,0,1.487,1.531c.274.207.491.561.834.687v-.034h-.023a1.281,1.281,0,0,0-.262-.228A5.551,5.551,0,0,1,93.668,43a14.725,14.725,0,0,1-1.28-2.081c-.184-.355-.343-.743-.491-1.1-.069-.137-.069-.343-.184-.412a4.276,4.276,0,0,0-.548.777,6.467,6.467,0,0,0-.321,1.728l-.045.022c-.364-.092-.491-.468-.629-.788a4.952,4.952,0,0,1-.1-3.053c.08-.24.424-.994.286-1.223-.069-.219-.3-.343-.423-.516a4.647,4.647,0,0,1-.412-.731c-.274-.64-.412-1.349-.708-1.989a6.159,6.159,0,0,0-.572-.881,5.663,5.663,0,0,1-.63-.891c-.057-.126-.137-.331-.045-.468a.182.182,0,0,1,.16-.149c.148-.125.571.034.72.1a5.793,5.793,0,0,1,1.132.571c.16.115.332.332.537.389h.241c.365.08.777.022,1.12.125a7.36,7.36,0,0,1,1.646.788,10.144,10.144,0,0,1,3.566,3.91c.137.263.195.5.32.777.241.561.539,1.132.778,1.681a7.533,7.533,0,0,0,.812,1.532c.171.24.858.366,1.167.491a8.064,8.064,0,0,1,.789.319c.389.24.776.515,1.142.778.182.137.754.423.788.652M90.82,33.433a1.781,1.781,0,0,0-.468.058v.023h.022a3.731,3.731,0,0,0,.366.469c.092.183.172.365.262.548l.022-.023a.642.642,0,0,0,.241-.572,2.613,2.613,0,0,1-.138-.24c-.067-.114-.216-.171-.308-.263" transform="translate(-62.765 -30.606)" fill="#5d87a1"/>
  <path id="Path_126" data-name="Path 126" d="M136.046,110.949h.237v-1.159h-.355l-.29.791-.315-.791h-.342v1.159h.224v-.882h.013l.33.882h.17l.329-.882Zm-1.908,0h.251v-.963h.328v-.2H133.8v.2h.341Z" transform="translate(-95.241 -85.557)" fill="#f8981d"/>
</svg>
