<svg id="photoshop-icon" xmlns="http://www.w3.org/2000/svg" width="37.834" height="36.888" viewBox="0 0 37.834 36.888">
  <path id="Path_129" data-name="Path 129" d="M6.7,0H31.134a6.694,6.694,0,0,1,6.7,6.7V30.188a6.694,6.694,0,0,1-6.7,6.7H6.7a6.694,6.694,0,0,1-6.7-6.7V6.7A6.694,6.694,0,0,1,6.7,0Z" transform="translate(0 0)" fill="#001e36"/>
  <path id="Path_130" data-name="Path 130" d="M54,75.989V59.768c0-.11.047-.173.158-.173.268,0,.52,0,.883-.016.378-.016.772-.016,1.2-.032s.883-.016,1.371-.032.962-.016,1.435-.016a9.269,9.269,0,0,1,3.247.489A5.63,5.63,0,0,1,64.4,61.281a5.019,5.019,0,0,1,1.151,1.8,6.034,6.034,0,0,1,.363,2.049,5.636,5.636,0,0,1-.946,3.358,5.4,5.4,0,0,1-2.538,1.923,10.217,10.217,0,0,1-3.547.536c-.378,0-.631,0-.788-.016s-.378-.016-.678-.016v5.06a.2.2,0,0,1-.173.221H54.189C54.063,76.194,54,76.131,54,75.989Zm3.437-13.352v5.3c.221.016.426.032.615.032h.835a5.888,5.888,0,0,0,1.813-.284,2.711,2.711,0,0,0,1.293-.836,2.436,2.436,0,0,0,.489-1.624,2.6,2.6,0,0,0-.363-1.4,2.286,2.286,0,0,0-1.1-.9,4.626,4.626,0,0,0-1.86-.315c-.41,0-.772,0-1.072.016a3.609,3.609,0,0,0-.646.016Z" transform="translate(-45.487 -50.12)" fill="#31a8ff"/>
  <path id="Path_131" data-name="Path 131" d="M148.439,87.863a5.58,5.58,0,0,0-1.513-.536,8.31,8.31,0,0,0-1.766-.2,3.174,3.174,0,0,0-.946.11.809.809,0,0,0-.489.315.836.836,0,0,0-.126.426.7.7,0,0,0,.158.41,1.779,1.779,0,0,0,.536.426c.363.189.741.363,1.119.52a11.418,11.418,0,0,1,2.428,1.151,3.668,3.668,0,0,1,1.245,1.308,3.4,3.4,0,0,1,.363,1.624,3.668,3.668,0,0,1-.615,2.1,3.95,3.95,0,0,1-1.766,1.4,7.223,7.223,0,0,1-2.853.5,10.859,10.859,0,0,1-2.144-.2,6.359,6.359,0,0,1-1.608-.5.31.31,0,0,1-.173-.3V93.664a.171.171,0,0,1,.063-.142.12.12,0,0,1,.142.016,6.748,6.748,0,0,0,1.955.772,7.339,7.339,0,0,0,1.86.236,3.009,3.009,0,0,0,1.308-.221.732.732,0,0,0,.426-.662.835.835,0,0,0-.378-.631,6.686,6.686,0,0,0-1.545-.741,9.644,9.644,0,0,1-2.239-1.135,4.081,4.081,0,0,1-1.2-1.34,3.382,3.382,0,0,1-.363-1.608,3.708,3.708,0,0,1,.536-1.907,3.886,3.886,0,0,1,1.655-1.45,6.113,6.113,0,0,1,2.79-.552,13.591,13.591,0,0,1,1.955.142,5.547,5.547,0,0,1,1.356.363.277.277,0,0,1,.158.142.791.791,0,0,1,.032.189v2.57a.194.194,0,0,1-.079.158A.42.42,0,0,1,148.439,87.863Z" transform="translate(-118.172 -71.011)" fill="#31a8ff"/>
</svg>
