<svg id="PHP" xmlns="http://www.w3.org/2000/svg" xmlns:xlink="http://www.w3.org/1999/xlink" width="34.827" height="18.32" viewBox="0 0 34.827 18.32">
  <defs>
    <radialGradient id="radial-gradient" cx="0.628" cy="0.8" r="1.248" gradientTransform="translate(-0.009 0.511) scale(0.526 1)" gradientUnits="objectBoundingBox">
      <stop offset="0" stop-color="#aeb2d5"/>
      <stop offset="0.3" stop-color="#aeb2d5"/>
      <stop offset="0.75" stop-color="#484c89"/>
      <stop offset="1" stop-color="#484c89"/>
    </radialGradient>
  </defs>
  <path id="path3462" d="M14.4-375.139c0,5.059,7.8,9.16,17.413,9.16h0c9.617,0,17.413-4.1,17.413-9.16h0c0-5.059-7.8-9.16-17.413-9.16h0c-9.617,0-17.413,4.1-17.413,9.16" transform="translate(-14.4 384.299)" fill="url(#radial-gradient)"/>
  <path id="path3474" d="M-315.367-319.643c9.241,0,16.733-3.8,16.733-8.48s-7.492-8.48-16.733-8.48-16.733,3.8-16.733,8.48,7.492,8.48,16.733,8.48" transform="translate(332.78 337.282)" fill="#777bb3"/>
  <path id="path3486" d="M-78.417-99.71a2.777,2.777,0,0,0,1.686-.416A2.253,2.253,0,0,0-76-101.534a1.516,1.516,0,0,0-.136-1.282,1.9,1.9,0,0,0-1.379-.358h-1.214L-79.4-99.71Zm-3.972,4.267a.189.189,0,0,1-.146-.069.189.189,0,0,1-.04-.156l1.784-9.18A.189.189,0,0,1-80.6-105h3.845a3.384,3.384,0,0,1,2.673.975,3.047,3.047,0,0,1,.522,2.7,4.315,4.315,0,0,1-.462,1.285,4.3,4.3,0,0,1-.851,1.066,3.733,3.733,0,0,1-1.4.839,6.344,6.344,0,0,1-1.924.247h-1.557L-80.2-95.6a.189.189,0,0,1-.185.153Z" transform="translate(87.878 109.92)"/>
  <path id="path3490" d="M-79-41.546h1.059c.845,0,1.139.185,1.239.3a1.388,1.388,0,0,1,.09,1.119,2.077,2.077,0,0,1-.659,1.294,2.6,2.6,0,0,1-1.571.377H-79.6Zm1.816-2.2h-3.845a.378.378,0,0,0-.371.306l-1.784,9.18a.378.378,0,0,0,.079.312.378.378,0,0,0,.292.137h2a.378.378,0,0,0,.371-.306l.415-2.135h1.4a6.528,6.528,0,0,0,1.983-.257,3.922,3.922,0,0,0,1.471-.881,4.5,4.5,0,0,0,.887-1.112,4.5,4.5,0,0,0,.483-1.342,3.224,3.224,0,0,0-.565-2.864,3.561,3.561,0,0,0-2.816-1.04m-2.874,5.668h1.216a2.937,2.937,0,0,0,1.8-.456,2.42,2.42,0,0,0,.8-1.521A1.667,1.667,0,0,0-76.42-41.5a2.046,2.046,0,0,0-1.519-.421h-1.37l-.747,3.842m2.874-5.29a3.194,3.194,0,0,1,2.531.911,2.858,2.858,0,0,1,.478,2.543,4.11,4.11,0,0,1-.442,1.229,4.1,4.1,0,0,1-.814,1.019,3.532,3.532,0,0,1-1.331.8,6.13,6.13,0,0,1-1.866.238h-1.713l-.474,2.441h-2l1.784-9.18h3.845" transform="translate(88.3 48.481)" fill="#fff"/>
  <path id="path3494" d="M-95.852-180.13A.189.189,0,0,1-96-180.2a.189.189,0,0,1-.04-.156l.789-4.062c.075-.386.057-.663-.052-.781-.067-.072-.266-.192-.857-.192h-1.43l-.992,5.106a.189.189,0,0,1-.185.153h-1.984a.189.189,0,0,1-.146-.069.189.189,0,0,1-.04-.156l1.784-9.18a.189.189,0,0,1,.186-.153h1.984a.189.189,0,0,1,.146.069.189.189,0,0,1,.04.156l-.431,2.216h1.538a3.571,3.571,0,0,1,2.429.632,2.1,2.1,0,0,1,.438,2.061l-.83,4.272a.189.189,0,0,1-.185.153Z" transform="translate(114.75 192.167)"/>
  <path id="path3498" d="M-78.139,0h-1.984a.378.378,0,0,0-.371.306l-1.784,9.18A.378.378,0,0,0-82.2,9.8a.378.378,0,0,0,.292.137h1.984a.378.378,0,0,0,.371-.306l.963-4.953h1.274c.59,0,.713.126.718.131.036.038.083.217.005.616l-.789,4.062A.378.378,0,0,0-77.3,9.8a.378.378,0,0,0,.292.137H-75a.378.378,0,0,0,.371-.306l.83-4.272a2.275,2.275,0,0,0-.5-2.236,3.735,3.735,0,0,0-2.557-.681h-1.309L-77.768.45a.378.378,0,0,0-.079-.312A.378.378,0,0,0-78.139,0m0,.378-.474,2.441h1.767a3.442,3.442,0,0,1,2.3.582,1.925,1.925,0,0,1,.38,1.886L-75,9.558h-2.015l.789-4.062a1.1,1.1,0,0,0-.1-.945,1.394,1.394,0,0,0-1-.252H-78.9l-1.022,5.259h-1.984l1.784-9.18h1.984" transform="translate(95.909 2.291)" fill="#fff"/>
  <path id="path3502" d="M-78.417-99.71a2.777,2.777,0,0,0,1.686-.416A2.253,2.253,0,0,0-76-101.534a1.515,1.515,0,0,0-.136-1.282,1.9,1.9,0,0,0-1.379-.358h-1.214L-79.4-99.71Zm-3.972,4.267a.189.189,0,0,1-.146-.069.189.189,0,0,1-.04-.156l1.784-9.18A.189.189,0,0,1-80.6-105h3.845a3.384,3.384,0,0,1,2.673.975,3.047,3.047,0,0,1,.522,2.7,4.318,4.318,0,0,1-.462,1.285,4.3,4.3,0,0,1-.851,1.066,3.733,3.733,0,0,1-1.4.839,6.344,6.344,0,0,1-1.924.247h-1.557L-80.2-95.6a.189.189,0,0,1-.186.153Z" transform="translate(103.485 109.92)"/>
  <path id="path3506" d="M-79-41.546h1.059c.845,0,1.139.185,1.239.3a1.387,1.387,0,0,1,.09,1.119,2.078,2.078,0,0,1-.659,1.294,2.6,2.6,0,0,1-1.571.377H-79.6Zm1.816-2.2h-3.845a.378.378,0,0,0-.371.306l-1.784,9.18a.378.378,0,0,0,.079.312.378.378,0,0,0,.292.137h2a.378.378,0,0,0,.371-.306l.415-2.135h1.4a6.528,6.528,0,0,0,1.983-.257,3.922,3.922,0,0,0,1.471-.881,4.493,4.493,0,0,0,.887-1.112,4.5,4.5,0,0,0,.483-1.342,3.224,3.224,0,0,0-.565-2.864,3.561,3.561,0,0,0-2.816-1.04m-2.874,5.668h1.216a2.937,2.937,0,0,0,1.8-.456,2.419,2.419,0,0,0,.8-1.521,1.666,1.666,0,0,0-.181-1.444,2.046,2.046,0,0,0-1.519-.421h-1.37l-.747,3.842m2.874-5.29a3.194,3.194,0,0,1,2.531.911,2.858,2.858,0,0,1,.478,2.543,4.11,4.11,0,0,1-.442,1.229,4.1,4.1,0,0,1-.814,1.019,3.532,3.532,0,0,1-1.331.8,6.13,6.13,0,0,1-1.866.238h-1.713l-.474,2.441h-2l1.784-9.18h3.845" transform="translate(103.907 48.481)" fill="#fff"/>
</svg>
