<svg id="Group_334" data-name="Group 334" xmlns="http://www.w3.org/2000/svg" width="37" height="31.797" viewBox="0 0 37 31.797">
  <circle id="Ellipse_6" data-name="Ellipse 6" cx="0.994" cy="0.994" r="0.994" transform="translate(28.816 14.905)" fill="#e0ff04"/>
  <ellipse id="Ellipse_7" data-name="Ellipse 7" cx="1.49" cy="0.994" rx="1.49" ry="0.994" transform="translate(5.962 14.905)" fill="#e0ff04"/>
  <path id="Path_170" data-name="Path 170" d="M196,40.336A4.336,4.336,0,1,0,200.336,36,4.341,4.341,0,0,0,196,40.336Zm5.781,0a1.445,1.445,0,1,1-1.445-1.445A1.447,1.447,0,0,1,201.781,40.336Z" transform="translate(-181.836 -36)" fill="#e0ff04"/>
  <path id="Path_171" data-name="Path 171" d="M204.672,360.336a4.336,4.336,0,1,0-4.336,4.336A4.341,4.341,0,0,0,204.672,360.336Zm-4.336,1.445a1.445,1.445,0,1,1,1.445-1.445A1.447,1.447,0,0,1,200.336,361.781Z" transform="translate(-181.836 -332.875)" fill="#e0ff04"/>
  <path id="Path_172" data-name="Path 172" d="M7.227,170.453c2.792,0,4.8-1.72,6.576-3.238,1.6-1.365,2.973-2.544,4.7-2.544s3.1,1.179,4.7,2.544c1.774,1.518,3.785,3.238,6.576,3.238a7.227,7.227,0,0,0,0-14.453c-3.014,0-5.108,1.794-6.956,3.377-1.506,1.29-2.806,2.4-4.317,2.4-1.724,0-3.1-1.179-4.7-2.544C12.029,157.72,10.018,156,7.227,156a7.227,7.227,0,1,0,0,14.453ZM24.7,161.572c1.61-1.379,3.131-2.682,5.075-2.682a4.336,4.336,0,1,1,0,8.672c-1.724,0-3.1-1.179-4.7-2.544a23.745,23.745,0,0,0-2.366-1.854c.708-.5,1.363-1.057,1.988-1.592ZM7.227,158.891c1.724,0,3.1,1.179,4.7,2.544a24.609,24.609,0,0,0,2.273,1.792,24.615,24.615,0,0,0-2.273,1.792c-1.6,1.365-2.973,2.544-4.7,2.544a4.336,4.336,0,1,1,0-8.672Z" transform="translate(0 -147.328)" fill="#e0ff04"/>
  <path id="Path_173" data-name="Path 173" d="M37.445,396a1.445,1.445,0,1,0,0,2.891h5.781a1.445,1.445,0,1,0,0-2.891Z" transform="translate(-33.398 -369.984)" fill="#e0ff04"/>
  <path id="Path_174" data-name="Path 174" d="M363.227,398.891a1.445,1.445,0,1,0,0-2.891h-5.781a1.445,1.445,0,1,0,0,2.891Z" transform="translate(-330.273 -369.984)" fill="#e0ff04"/>
  <path id="Path_175" data-name="Path 175" d="M37.445,76a1.445,1.445,0,0,0,0,2.891h5.781a1.445,1.445,0,0,0,0-2.891Z" transform="translate(-33.398 -73.109)" fill="#e0ff04"/>
  <path id="Path_176" data-name="Path 176" d="M357.445,76a1.445,1.445,0,0,0,0,2.891h5.781a1.445,1.445,0,0,0,0-2.891Z" transform="translate(-330.273 -73.109)" fill="#e0ff04"/>
</svg>
