<svg id="Search" xmlns="http://www.w3.org/2000/svg" width="31.797" height="31.797" viewBox="0 0 31.797 31.797">
  <path id="Path_168" data-name="Path 168" d="M120.309,76a7.449,7.449,0,0,0-6.072,11.768l-3.873,3.873A1.242,1.242,0,0,0,112.12,93.4l3.873-3.873A7.451,7.451,0,1,0,120.309,76Zm0,12.421a4.968,4.968,0,1,1,4.968-4.968A4.974,4.974,0,0,1,120.309,88.421Z" transform="translate(-103.168 -71.28)" fill="#e0ff04"/>
  <path id="Path_169" data-name="Path 169" d="M25.587,0H6.21A6.217,6.217,0,0,0,0,6.21V20.618a6.217,6.217,0,0,0,6.21,6.21h8.446v2.484H10.93a1.242,1.242,0,0,0,0,2.484h9.937a1.242,1.242,0,0,0,0-2.484H17.141V25.587A1.242,1.242,0,0,0,15.9,24.344H6.21a3.73,3.73,0,0,1-3.726-3.726V6.21A3.73,3.73,0,0,1,6.21,2.484H25.587A3.73,3.73,0,0,1,29.313,6.21V20.618a3.73,3.73,0,0,1-3.726,3.726h-4.72a1.242,1.242,0,0,0,0,2.484h4.72a6.217,6.217,0,0,0,6.21-6.21V6.21A6.217,6.217,0,0,0,25.587,0Z" transform="translate(0 0)" fill="#e0ff04"/>
</svg>
