<svg xmlns="http://www.w3.org/2000/svg" width="36.147" height="33.888" viewBox="0 0 36.147 33.888">
  <g id="sitios-web-icon" transform="translate(0 -0.453)">
    <path id="Path_278" data-name="Path 278" d="M208.19,261.562a1.694,1.694,0,1,1-1.694-1.694A1.695,1.695,0,0,1,208.19,261.562Zm0,0" transform="translate(-187.857 -237.952)" fill="#fff"/>
    <path id="Path_279" data-name="Path 279" d="M31.338.453H4.808A4.813,4.813,0,0,0,0,5.262V23.884a4.813,4.813,0,0,0,4.809,4.808h8.207l-1.639,4.1a1.13,1.13,0,0,0,1.049,1.549H24.851A1.13,1.13,0,0,0,25.9,32.792l-1.64-4.1h7.078a4.813,4.813,0,0,0,4.809-4.808V5.262A4.813,4.813,0,0,0,31.338.453ZM3.446,18.526a14.617,14.617,0,0,1,3.936-8.9,16.918,16.918,0,0,0,3.067,2,23.7,23.7,0,0,0-1.354,6.906ZM18.073,4.971c.228,0,.45.024.675.034a17.283,17.283,0,0,1,4.015,5.4,14.685,14.685,0,0,1-4.69.78,14.673,14.673,0,0,1-4.673-.777A17.287,17.287,0,0,1,17.418,5c.219-.01.434-.033.655-.033Zm4.341.656a14.657,14.657,0,0,1,4.665,2.455,14.552,14.552,0,0,1-2.241,1.433,20.468,20.468,0,0,0-2.425-3.889Zm-11.092,3.9A14.625,14.625,0,0,1,9.069,8.081a14.642,14.642,0,0,1,4.688-2.46,20.476,20.476,0,0,0-2.435,3.9Zm1.206,2.969a16.931,16.931,0,0,0,5.546.947,16.953,16.953,0,0,0,5.565-.948,21.469,21.469,0,0,1,1.175,6.032H11.352a21.467,21.467,0,0,1,1.175-6.031Zm14.544,6.031a23.7,23.7,0,0,0-1.36-6.922,16.825,16.825,0,0,0,3.063-1.973A14.614,14.614,0,0,1,32.7,18.526ZM4.808,2.712h26.53a2.553,2.553,0,0,1,2.55,2.549v8.361A16.955,16.955,0,0,0,19.3,2.774a1.1,1.1,0,0,0-.223-.011c-.333-.02-.663-.051-1-.051s-.657.031-.985.05a1.108,1.108,0,0,0-.2.01A16.954,16.954,0,0,0,2.259,13.623V5.262A2.552,2.552,0,0,1,4.808,2.712ZM23.183,32.081h-9.09l1.356-3.389h6.378Zm10.7-8.2a2.553,2.553,0,0,1-2.55,2.549H4.808a2.552,2.552,0,0,1-2.549-2.549v-3.1H33.888Zm0,0" fill="#fff"/>
  </g>
</svg>
