<svg xmlns="http://www.w3.org/2000/svg" width="79.697" height="48.4" viewBox="0 0 79.697 48.4">
  <g id="Group_312" data-name="Group 312" transform="translate(0 0)">
    <path id="Path_160" data-name="Path 160" d="M41.05,48.39a6.729,6.729,0,0,1-5.78-2.99,6.885,6.885,0,0,1-1.3-5.75l.14-.88a9.969,9.969,0,0,1-1.09.07H7.26a6.729,6.729,0,0,1-5.78-2.99A6.85,6.85,0,0,1,.18,30.1l.73-4.58,2.4-15.17.36-2.33A9.112,9.112,0,0,1,6.83,2.35,9.138,9.138,0,0,1,12.92-.01H38.49a7.079,7.079,0,0,1,5.67,2.58,7.334,7.334,0,0,1,1.66,5.99V8.6l-.17.99a9.11,9.11,0,0,1,1.05-.06H72.27a7.093,7.093,0,0,1,5.67,2.58A7.285,7.285,0,0,1,79.6,18.1v.04l-.88,5.49H78.7L76.74,35.38l-1.08,5.85a6.758,6.758,0,0,1-.88,2.59,10.373,10.373,0,0,1-1.97,2.25,9.068,9.068,0,0,1-6.03,2.29H41.02ZM36.44,36.24l-.61,3.85a5.045,5.045,0,0,0,1.01,4.22,4.908,4.908,0,0,0,4.44,2.17H66.81a7.235,7.235,0,0,0,4.79-1.83,8.569,8.569,0,0,0,1.61-1.83,5.171,5.171,0,0,0,.61-1.91l1.08-5.84,2.22-13.31h.01l.62-3.9a5.475,5.475,0,0,0-1.23-4.49h0a5.153,5.153,0,0,0-4.21-1.91H46.74a7.045,7.045,0,0,0-1.94.27l-1.44.41.61-3.82a5.475,5.475,0,0,0-1.23-4.49,5.186,5.186,0,0,0-4.22-1.91H12.94A7.326,7.326,0,0,0,8.09,3.81a7.272,7.272,0,0,0-2.53,4.5v.02L5.2,10.67,2.8,25.85l-.75,4.67v.05a4.937,4.937,0,0,0,1,4.22,4.9,4.9,0,0,0,4.44,2.17H33.02A6.967,6.967,0,0,0,35,36.68l1.44-.42Z" transform="translate(0.01 0.01)" fill="#fff"/>
    <g id="Group_311" data-name="Group 311" transform="translate(0.96 0.97)">
      <path id="Path_161" data-name="Path 161" d="M77.24,12.74A6.155,6.155,0,0,0,72.3,10.5H46.73a7.7,7.7,0,0,0-2.2.31l.37-2.33V8.45A6.4,6.4,0,0,0,43.46,3.2,6.155,6.155,0,0,0,38.52.96H12.94A8.226,8.226,0,0,0,7.47,3.08,8.168,8.168,0,0,0,4.62,8.17l-.36,2.34h0L1.86,25.69l-.74,4.62a5.934,5.934,0,0,0,1.15,5.01,5.834,5.834,0,0,0,5,2.58H33.02a8.05,8.05,0,0,0,2.25-.32l-.36,2.28a5.934,5.934,0,0,0,1.15,5.01,5.834,5.834,0,0,0,5,2.58H66.81a8.136,8.136,0,0,0,5.41-2.06,9.4,9.4,0,0,0,1.79-2.04,5.973,5.973,0,0,0,.74-2.25c.12-.66.24-1.32.36-1.97.22-1.18.44-2.37.65-3.55l.06-.33,2.09-12.53h.02l.75-4.68v-.03a6.4,6.4,0,0,0-1.44-5.25ZM36.92,34.07a6.716,6.716,0,0,1-1.23.84,5.587,5.587,0,0,1-2.67.66H7.46a3.533,3.533,0,0,1-3.29-1.58,3.654,3.654,0,0,1-.8-3.13l.47-2.87H17.73l-.29,1.88v.03a2,2,0,0,0,.45,1.58,1.956,1.956,0,0,0,1.53.71h3.51a2.383,2.383,0,0,0,2.29-1.98l1.14-7.18a1.934,1.934,0,0,0-.49-1.58,1.959,1.959,0,0,0-1.5-.73H9.72a3.513,3.513,0,0,1-2.94-1.28,3.909,3.909,0,0,1-1-3.57L6.92,8.48A5.856,5.856,0,0,1,9,4.8a5.873,5.873,0,0,1,3.94-1.55H38.51a3.9,3.9,0,0,1,3.18,1.43,4.148,4.148,0,0,1,.92,3.43l-.09.54-.35,2.18H28.28l.29-1.88V8.92a2.025,2.025,0,0,0-.1-.95,2.049,2.049,0,0,0-.36-.62,1.956,1.956,0,0,0-1.53-.71H23.07a2.276,2.276,0,0,0-1.49.57,2.237,2.237,0,0,0-.59.76,2.05,2.05,0,0,0-.2.65L19.75,15.3a2.03,2.03,0,0,0,.42,1.54c.03.04.06.07.09.11a1.852,1.852,0,0,0,1.42.67H36.22a3.741,3.741,0,0,1,2.09.62,4.775,4.775,0,0,1,.98.85c.02.02.03.04.05.06a4.06,4.06,0,0,1,.9,1.68,4.2,4.2,0,0,1,.08,1.63L39.03,30.4a5.37,5.37,0,0,1-.59,1.8A6.538,6.538,0,0,1,36.98,34c-.03.03-.06.05-.09.08ZM76.4,17.67l-.44,2.72H62.07l.29-1.88v-.03a2.008,2.008,0,0,0-.45-1.58,1.956,1.956,0,0,0-1.53-.71H56.87a2.276,2.276,0,0,0-1.49.57,2.246,2.246,0,0,0-.79,1.41L51.23,39.42v.04a2,2,0,0,0,.45,1.58,1.956,1.956,0,0,0,1.53.71h3.51a2.38,2.38,0,0,0,2.29-1.99l.34-2.22H73.22l-.38,2.4a6.33,6.33,0,0,1-6.03,5.18H41.25a3.533,3.533,0,0,1-3.29-1.58,3.654,3.654,0,0,1-.8-3.13l.02-.07.64-4.03a7.006,7.006,0,0,0,.62-.49,8.166,8.166,0,0,0,2.91-5.09l1.29-7.94a6.3,6.3,0,0,0-1.59-5.26c-.06-.07-.12-.13-.19-.2.04-.13.07-.27.12-.4a6.018,6.018,0,0,1,1.56-2.34c.08-.08.17-.16.26-.24a5.873,5.873,0,0,1,3.94-1.55H72.31a3.9,3.9,0,0,1,3.18,1.43,4.148,4.148,0,0,1,.92,3.43Z" transform="translate(-0.951 -0.96)"/>
      <g id="Group_310" data-name="Group 310" transform="translate(2.308 2.28)">
        <path id="Path_162" data-name="Path 162" d="M72.3,12.81H46.73a5.873,5.873,0,0,0-3.94,1.55c-.09.08-.17.16-.26.24a5.946,5.946,0,0,0-1.56,2.34c-.05.13-.08.26-.12.4.06.07.12.13.19.2a6.264,6.264,0,0,1,1.59,5.26l-1.29,7.94a8.141,8.141,0,0,1-2.91,5.09c-.2.17-.41.34-.62.49l-.64,4.03-.02.07a3.687,3.687,0,0,0,.8,3.13,3.523,3.523,0,0,0,3.29,1.58H66.8a6.33,6.33,0,0,0,6.03-5.18l.38-2.4H59.34L59,39.77a2.2,2.2,0,0,1-.79,1.41,2.28,2.28,0,0,1-1.5.58H53.2a1.941,1.941,0,0,1-1.53-.71,2.031,2.031,0,0,1-.46-1.58v-.04l3.37-21.25a2.359,2.359,0,0,1,2.28-1.98h3.51a1.956,1.956,0,0,1,1.53.71,2.042,2.042,0,0,1,.46,1.58v.03l-.29,1.88H75.96l.44-2.72a4.148,4.148,0,0,0-.92-3.43,3.925,3.925,0,0,0-3.18-1.43Z" transform="translate(-3.259 -3.24)" fill="#fff"/>
        <path id="Path_163" data-name="Path 163" d="M38.46,32.19a5.37,5.37,0,0,0,.59-1.8l1.29-7.94a4.2,4.2,0,0,0-.08-1.63,4.06,4.06,0,0,0-.9-1.68c-.02-.02-.03-.04-.05-.06a4.775,4.775,0,0,0-.98-.85,3.741,3.741,0,0,0-2.09-.62H21.7a1.852,1.852,0,0,1-1.42-.67c-.03-.04-.06-.07-.09-.11a2.019,2.019,0,0,1-.42-1.54l1.04-6.68a2.132,2.132,0,0,1,.2-.65,2.369,2.369,0,0,1,.59-.76,2.244,2.244,0,0,1,1.49-.57H26.6a1.956,1.956,0,0,1,1.53.71,2.049,2.049,0,0,1,.36.62,2.025,2.025,0,0,1,.1.95v.03l-.29,1.88H42.19l.35-2.18.09-.54a4.148,4.148,0,0,0-.92-3.43,3.925,3.925,0,0,0-3.18-1.43H12.94A5.873,5.873,0,0,0,9,4.79,5.856,5.856,0,0,0,6.92,8.47L5.78,15.86a3.909,3.909,0,0,0,1,3.57,3.513,3.513,0,0,0,2.94,1.28H24.37a1.959,1.959,0,0,1,1.5.73,2.008,2.008,0,0,1,.49,1.58L25.22,30.2a2.223,2.223,0,0,1-.79,1.4,2.28,2.28,0,0,1-1.5.58H19.42a1.941,1.941,0,0,1-1.53-.71,2.031,2.031,0,0,1-.46-1.58v-.03l.29-1.88H3.83l-.47,2.87a3.687,3.687,0,0,0,.8,3.13,3.523,3.523,0,0,0,3.29,1.58H33.01a5.587,5.587,0,0,0,2.67-.66,6.716,6.716,0,0,0,1.23-.84c.03-.03.06-.05.09-.08a6.726,6.726,0,0,0,1.46-1.8Z" transform="translate(-3.259 -3.24)" fill="#fff"/>
      </g>
    </g>
  </g>
</svg>
