<svg xmlns="http://www.w3.org/2000/svg" xmlns:xlink="http://www.w3.org/1999/xlink" width="36.733" height="22.04" viewBox="0 0 36.733 22.04">
  <defs>
    <clipPath id="clip-path">
      <path id="Path_110" data-name="Path 110" d="M0,0H36.733V22.04H0Z" fill="#fff"/>
    </clipPath>
  </defs>
  <g id="tailwind-icon" clip-path="url(#clip-path)">
    <path id="Path_109" data-name="Path 109" d="M18.366,0Q11.02,0,9.183,7.347q2.755-3.673,6.428-2.755a7.829,7.829,0,0,1,3.5,2.485C20.913,8.9,23,11.02,27.549,11.02q7.347,0,9.183-7.347Q33.978,7.347,30.3,6.428a7.829,7.829,0,0,1-3.5-2.485C25,2.116,22.918,0,18.366,0ZM9.183,11.02Q1.837,11.02,0,18.366q2.755-3.673,6.428-2.755a7.835,7.835,0,0,1,3.5,2.485c1.8,1.828,3.885,3.943,8.437,3.943q7.347,0,9.183-7.347-2.755,3.673-6.428,2.755a7.829,7.829,0,0,1-3.5-2.485C15.819,13.135,13.735,11.02,9.183,11.02Z" fill="#38bdf8" fill-rule="evenodd"/>
  </g>
</svg>
