<svg id="ubersuggest-icon" xmlns="http://www.w3.org/2000/svg" width="81.614" height="28.737" viewBox="0 0 81.614 28.737">
  <path id="Path_138" data-name="Path 138" d="M4.047,10.663A3.693,3.693,0,0,0,8.095,6.723V.486H6.071V6.723a1.881,1.881,0,0,1-2.024,2.07,1.881,1.881,0,0,1-2.024-2.07V.486H0V6.723A3.693,3.693,0,0,0,4.047,10.663Z" transform="translate(0 -0.157)" fill="#f16434"/>
  <path id="Path_139" data-name="Path 139" d="M12.915,10.373h1.866V9.6a2.926,2.926,0,0,0,2.225.956A3.642,3.642,0,0,0,20.68,6.647c0-2.312-1.407-3.925-3.559-3.925a2.818,2.818,0,0,0-2.225.971V.053H12.915Zm1.923-3.711a1.951,1.951,0,0,1,1.923-2.2,1.973,1.973,0,0,1,1.923,2.2,1.936,1.936,0,0,1-1.923,2.155A1.964,1.964,0,0,1,14.838,6.661Z" transform="translate(-3.121 -0.053)" fill="#f16434"/>
  <path id="Path_140" data-name="Path 140" d="M24.122,7.512a3.734,3.734,0,0,0,3.947,3.9,3.569,3.569,0,0,0,3.158-1.641L29.92,8.782A2.2,2.2,0,0,1,28.1,9.7a1.819,1.819,0,0,1-1.952-1.713h5.282a4.274,4.274,0,0,0,.014-.428c0-2.441-1.321-3.982-3.646-3.982A3.7,3.7,0,0,0,24.122,7.512ZM26.2,6.7a1.588,1.588,0,0,1,1.622-1.513A1.529,1.529,0,0,1,29.432,6.7Z" transform="translate(-5.829 -0.903)" fill="#f16434"/>
  <path id="Path_141" data-name="Path 141" d="M39.229,3.572a2.184,2.184,0,0,0-2.067,1.27V3.758H35.224v7.465H37.2V7.969c0-1.484.545-2.4,2.024-2.4Z" transform="translate(-8.512 -0.903)" fill="#f16434"/>
  <path id="Path_142" data-name="Path 142" d="M44.181,11.409c1.622,0,2.885-.913,2.885-2.369,0-2.669-3.56-2.1-3.56-3.283,0-.371.316-.6.775-.6a1.7,1.7,0,0,1,1.349.714L46.936,4.9a2.882,2.882,0,0,0-2.569-1.327c-1.536,0-2.727.828-2.727,2.212,0,2.655,3.545,2.212,3.545,3.354,0,.428-.359.671-.919.671A2.145,2.145,0,0,1,42.545,9l-1.163,1.028A3.212,3.212,0,0,0,44.181,11.409Z" transform="translate(-10 -0.903)" fill="#f16434"/>
  <path id="Path_143" data-name="Path 143" d="M52.791,11.468A2.371,2.371,0,0,0,54.8,10.412v.871h1.938V3.817H54.758V8.3a1.3,1.3,0,0,1-1.335,1.4,1.254,1.254,0,0,1-1.249-1.342V3.817H50.194V8.128C50.194,9.712,50.653,11.468,52.791,11.468Z" transform="translate(-12.13 -0.962)" fill="#f16434"/>
  <path id="Path_144" data-name="Path 144" d="M61.194,13.279a6.073,6.073,0,0,0,2.756.685c2.21,0,4.033-.9,4.033-3.683V3.758H66.117v.785a2.871,2.871,0,0,0-2.239-.971A3.651,3.651,0,0,0,60.218,7.5c0,2.3,1.421,3.911,3.588,3.911a2.8,2.8,0,0,0,2.2-.956v.343c0,1.156-.99,1.484-2.067,1.484a4.949,4.949,0,0,1-2.139-.514Zm4.866-5.8a1.945,1.945,0,0,1-1.923,2.184,1.968,1.968,0,0,1-1.923-2.184,1.946,1.946,0,0,1,1.909-2.17A1.965,1.965,0,0,1,66.06,7.483Z" transform="translate(-14.552 -0.903)" fill="#f16434"/>
  <path id="Path_145" data-name="Path 145" d="M72.839,13.279a6.073,6.073,0,0,0,2.756.685c2.21,0,4.033-.9,4.033-3.683V3.758H77.762v.785a2.871,2.871,0,0,0-2.239-.971A3.651,3.651,0,0,0,71.863,7.5c0,2.3,1.421,3.911,3.588,3.911a2.8,2.8,0,0,0,2.2-.956v.343c0,1.156-.99,1.484-2.067,1.484a4.949,4.949,0,0,1-2.139-.514Zm4.866-5.8a1.945,1.945,0,0,1-1.923,2.184,1.968,1.968,0,0,1-1.923-2.184,1.946,1.946,0,0,1,1.909-2.17A1.965,1.965,0,0,1,77.7,7.483Z" transform="translate(-17.366 -0.903)" fill="#f16434"/>
  <path id="Path_146" data-name="Path 146" d="M83.545,7.512a3.734,3.734,0,0,0,3.947,3.9,3.569,3.569,0,0,0,3.158-1.641l-1.306-.985A2.2,2.2,0,0,1,87.52,9.7a1.819,1.819,0,0,1-1.952-1.713H90.85a4.249,4.249,0,0,0,.014-.428c0-2.441-1.32-3.982-3.646-3.982A3.7,3.7,0,0,0,83.545,7.512ZM85.626,6.7a1.588,1.588,0,0,1,1.622-1.513A1.529,1.529,0,0,1,88.855,6.7Z" transform="translate(-20.189 -0.903)" fill="#f16434"/>
  <path id="Path_147" data-name="Path 147" d="M96.783,11.409c1.622,0,2.885-.913,2.885-2.369,0-2.669-3.559-2.1-3.559-3.283,0-.371.316-.6.775-.6a1.7,1.7,0,0,1,1.349.714L99.539,4.9A2.882,2.882,0,0,0,96.97,3.572c-1.536,0-2.727.828-2.727,2.212,0,2.655,3.545,2.212,3.545,3.354,0,.428-.359.671-.919.671A2.145,2.145,0,0,1,95.147,9l-1.163,1.028A3.212,3.212,0,0,0,96.783,11.409Z" transform="translate(-22.712 -0.903)" fill="#f16434"/>
  <path id="Path_148" data-name="Path 148" d="M102.862,3.317h-.8v1.6h.789v2.94c0,2.027.789,3.026,2.584,3.026a4.054,4.054,0,0,0,.846-.071V9.126a3.262,3.262,0,0,1-.359.014c-.761,0-1.1-.228-1.1-1.342V4.915h1.407v-1.6h-1.407V1.747h-1.952Z" transform="translate(-24.663 -0.462)" fill="#f16434"/>
  <path id="Path_149" data-name="Path 149" d="M26,25.956h.613v1.522a1.133,1.133,0,0,1,.949-.468,1.4,1.4,0,0,1,1.393,1.544,1.424,1.424,0,0,1-1.432,1.533,1.176,1.176,0,0,1-.943-.454v.381H26ZM27.46,29.55a1.005,1.005,0,1,0-.871-.989A.9.9,0,0,0,27.46,29.55Z" transform="translate(-6.283 -6.313)" fill="#202020"/>
  <path id="Path_150" data-name="Path 150" d="M30.9,31.377l.416-1.056-1.163-2.879h.658l.792,2.133.78-2.133h.641l-1.531,3.935Z" transform="translate(-7.287 -6.672)" fill="#202020"/>
  <path id="Path_151" data-name="Path 151" d="M58.548,30.786a1.3,1.3,0,0,0,1.086-.586v.52h.721V26.413h-.721v1.672a1.312,1.312,0,0,0-1.086-.548,1.5,1.5,0,0,0-1.471,1.615v.019A1.508,1.508,0,0,0,58.548,30.786Zm.174-.623a.935.935,0,0,1-.913-.992v-.019a.924.924,0,0,1,.913-.992.936.936,0,0,1,.923.992v.019A.943.943,0,0,1,58.721,30.163Zm2.528-3.042h.779v-.68h-.779Zm.029,3.6h.73V27.6h-.73Zm3.066.954a1.794,1.794,0,0,0,1.3-.416,1.575,1.575,0,0,0,.4-1.181V27.6h-.721v.463A1.441,1.441,0,0,0,62.769,29v.009a1.414,1.414,0,0,0,1.442,1.464,1.322,1.322,0,0,0,1.115-.576v.245a.879.879,0,0,1-1,.954,2.09,2.09,0,0,1-1.134-.331l-.27.538A2.832,2.832,0,0,0,64.344,31.675Zm.058-1.8a.86.86,0,0,1-.9-.86v-.019a.847.847,0,0,1,.9-.85.885.885,0,0,1,.932.86v.009A.891.891,0,0,1,64.4,29.87Zm2.537-2.749h.779v-.68h-.779Zm.029,3.6h.73V27.6h-.73Zm2.71.057a1.358,1.358,0,0,0,.653-.16v-.586a1.056,1.056,0,0,1-.452.1.341.341,0,0,1-.385-.387v-1.53h.846V27.6h-.846v-.86h-.73v.86h-.4v.614h.4v1.643A.808.808,0,0,0,69.678,30.777Zm4.037-.057V28.869a1.215,1.215,0,0,0-1.394-1.313,2.785,2.785,0,0,0-1.211.255l.2.576a2.149,2.149,0,0,1,.9-.2c.5,0,.779.236.779.67v.057a2.727,2.727,0,0,0-.875-.123c-.74,0-1.288.331-1.288,1.02v.009a1.013,1.013,0,0,0,1.134.964,1.3,1.3,0,0,0,1.028-.453v.388Zm-.7-1.124c0,.387-.365.652-.846.652-.346,0-.615-.17-.615-.463v-.009c0-.3.27-.482.73-.482a2.062,2.062,0,0,1,.73.123v.18ZM74.59,30.72h.73V26.413h-.73Z" transform="translate(-13.793 -6.423)" fill="#202020"/>
  <path id="Path_152" data-name="Path 152" d="M37.788,20.907H50.937V33.829H37.788Zm2.509,8.53h.73V26.5l2.317,2.938h.615V25.3h-.721v2.863L40.98,25.3H40.3v4.137Zm4.882,0h.74V28.1h.836c.923,0,1.682-.482,1.682-1.408v-.009a1.416,1.416,0,0,0-1.6-1.389H45.179Zm.741-1.984V25.97h.856c.557,0,.9.245.9.736v.009c0,.435-.346.736-.9.736h-.856Zm-7.4-5.828h11.7v11.5h-11.7Z" transform="translate(-9.132 -5.092)" fill="#f16434" fill-rule="evenodd"/>
</svg>
