<svg id="xd-icon" xmlns="http://www.w3.org/2000/svg" width="37.834" height="36.888" viewBox="0 0 37.834 36.888">
  <path id="Path_119" data-name="Path 119" d="M6.7,0H31.134a6.694,6.694,0,0,1,6.7,6.7V30.188a6.694,6.694,0,0,1-6.7,6.7H6.7a6.694,6.694,0,0,1-6.7-6.7V6.7A6.694,6.694,0,0,1,6.7,0Z" fill="#470137"/>
  <path id="Path_120" data-name="Path 120" d="M49.344,60.236l-4.729,7.8,5.045,8.276a.271.271,0,0,1,.032.189c-.016.063-.079.016-.173.032h-3.61c-.252,0-.426-.016-.536-.173-.331-.662-.678-1.308-1.009-1.971-.331-.646-.694-1.308-1.072-1.986s-.757-1.356-1.135-2.049h-.032c-.331.678-.694,1.356-1.056,2.034S40.343,73.746,40,74.408c-.363.662-.725,1.34-1.088,1.986-.063.158-.189.173-.363.173H35.077c-.063,0-.11.032-.11-.047A.219.219,0,0,1,35,76.347l4.9-8.04-4.777-8.087c-.047-.063-.063-.126-.032-.158A.183.183,0,0,1,35.251,60h3.578a.931.931,0,0,1,.221.032.447.447,0,0,1,.158.142c.3.678.646,1.356,1.009,2.034.378.678.741,1.34,1.135,2,.378.662.725,1.324,1.056,2h.032c.331-.694.678-1.371,1.025-2.034s.709-1.324,1.072-1.986.709-1.34,1.056-1.986a.268.268,0,0,1,.095-.158.3.3,0,0,1,.2-.032h3.326a.145.145,0,0,1,.173.11c.016.016-.016.079-.047.11Z" transform="translate(-29.45 -50.542)" fill="#ff61f6"/>
  <path id="Path_121" data-name="Path 121" d="M136.934,69.526a7.837,7.837,0,0,1-3.389-.709,5.5,5.5,0,0,1-2.38-2.144,6.821,6.821,0,0,1-.867-3.594,6.475,6.475,0,0,1,.867-3.326,6.547,6.547,0,0,1,2.507-2.443,8.064,8.064,0,0,1,3.988-.914,2.815,2.815,0,0,1,.331.016c.142.016.3.016.489.032V51.46c0-.11.047-.173.158-.173h3.2a.141.141,0,0,1,.158.11V66.436c0,.284.016.6.032.946.032.331.047.646.063.914a.256.256,0,0,1-.158.252,12.039,12.039,0,0,1-2.57.757A13.905,13.905,0,0,1,136.934,69.526Zm1.545-3.153V59.437a4.034,4.034,0,0,0-.426-.079c-.173-.016-.347-.032-.52-.032a3.886,3.886,0,0,0-1.781.41,3.534,3.534,0,0,0-1.34,1.167,3.5,3.5,0,0,0-.52,2,4.393,4.393,0,0,0,.268,1.624,3.081,3.081,0,0,0,.709,1.119,2.723,2.723,0,0,0,1.072.631,4.126,4.126,0,0,0,1.308.2c.236,0,.457-.016.662-.032A1.379,1.379,0,0,0,138.478,66.373Z" transform="translate(-109.756 -43.2)" fill="#ff61f6"/>
</svg>
